<mxfile host="65bd71144e">
    <diagram id="Ar8mri8sPEqrgck1lp_s" name="ページ1">
        <mxGraphModel dx="1784" dy="1231" grid="0" gridSize="10" guides="1" tooltips="1" connect="1" arrows="1" fold="1" page="0" pageScale="1" pageWidth="827" pageHeight="1169" math="0" shadow="0">
            <root>
                <mxCell id="0"/>
                <mxCell id="1" parent="0"/>
                <mxCell id="44" value="" style="rounded=1;whiteSpace=wrap;html=1;fillColor=#d5e8d4;strokeColor=#82b366;opacity=40;" parent="1" vertex="1">
                    <mxGeometry x="-40" y="420" width="310" height="240" as="geometry"/>
                </mxCell>
                <mxCell id="15" style="edgeStyle=none;html=1;" parent="1" source="2" target="7" edge="1">
                    <mxGeometry relative="1" as="geometry"/>
                </mxCell>
                <mxCell id="17" value="Span Metrics&lt;br&gt;remote write" style="edgeLabel;html=1;align=center;verticalAlign=middle;resizable=0;points=[];" parent="15" vertex="1" connectable="0">
                    <mxGeometry x="-0.4012" y="2" relative="1" as="geometry">
                        <mxPoint as="offset"/>
                    </mxGeometry>
                </mxCell>
                <mxCell id="2" value="Tempo" style="shape=image;verticalLabelPosition=bottom;labelBackgroundColor=default;verticalAlign=top;aspect=fixed;imageAspect=0;image=https://grafana.com/static/assets/img/logos/grafana-tempo.svg;" parent="1" vertex="1">
                    <mxGeometry x="359.33000000000004" y="230" width="61.33" height="50" as="geometry"/>
                </mxCell>
                <mxCell id="3" value="Loki" style="shape=image;verticalLabelPosition=bottom;labelBackgroundColor=default;verticalAlign=top;aspect=fixed;imageAspect=0;image=https://grafana.com/static/img/logos/logo-loki.svg;" parent="1" vertex="1">
                    <mxGeometry x="580" y="210" width="48" height="56" as="geometry"/>
                </mxCell>
                <mxCell id="18" style="edgeStyle=none;html=1;" parent="1" source="5" target="2" edge="1">
                    <mxGeometry relative="1" as="geometry"/>
                </mxCell>
                <mxCell id="19" value="export(trace)" style="edgeLabel;html=1;align=center;verticalAlign=middle;resizable=0;points=[];" parent="18" vertex="1" connectable="0">
                    <mxGeometry x="-0.3032" y="2" relative="1" as="geometry">
                        <mxPoint as="offset"/>
                    </mxGeometry>
                </mxCell>
                <mxCell id="5" value="collector" style="shape=image;verticalLabelPosition=bottom;labelBackgroundColor=default;verticalAlign=top;aspect=fixed;imageAspect=0;image=data:image/png,iVBORw0KGgoAAAANSUhEUgAAB9AAAAfQCAYAAACaOMR5AAAACXBIWXMAABYlAAAWJQFJUiTwAAAgAElEQVR4nOzdTW5bR5eA4VLQE47iDRD2DpwdWAsQEA8CcBj2Cto7aPcOlBW0PCQgIA6Q+aesoOUduMEFtDTikA1aN44sixJ/bt1bVed5AEJyBgFZRwNDr0/dk/V6nQAAAAAAAAAguh+iHwAAAAAAAAAAJAEdAAAAAAAAAO4I6AAAAAAAAACElwR0AAAAAAAAALgjoAMAAAAAAAAQXhLQAQAAAAAAAOCOgA4AAAAAAABAeElABwAAAAAAAIA7AjoAAAAAAAAA4SUBHQAAAAAAAADuCOgAAAAAAAAAhJcEdAAAAAAAAAC4I6ADAAAAAAAAEN7GvzkFAAAAAICyrRbT05TSqwev1P355TNv/lNK6ab7/rr7/svXyWx5ZfQAAP84Wa/XjgMAAAAAoBBdLN+8fupezwXyY33qgvrmdTWZLa/9LAAAUQnoAAAAAAAjWi2mm0j+tovmbwqYxe0mpHevj5PZ8nMB7wkAYBACOgAAAADAwLpoPu/Cee4N82NtNtQvxHQAIAIBHQAAAABgAKvF9EUXzd9VEM232cT08y6m3xz2vwAAKJeADgAAAACQUfdM8004/7Whc77tttLPbaUDAC0R0AEAAAAAMujC+ftCnmue04fN5xTSAYAWCOgAAAAAAD0KFM4fEtIBgOoJ6AAAAAAAPVgtpq+6a82jhfOHNiH9nWekAwA1EtABAAAAAI6wWkxfdBvn/+Ecv7rtttHPC3k/AAA7EdABAAAAAA60WkzfdlvnPzrDR31KKc0ns+V1ge8NAOA7AjoAAAAAwJ66rfNNOP/Z2e3kvyaz5fsK3icAEJyADgAAAACwh9VieppS+mjrfG+bbfS3k9nyc2XvGwAI5AfDBgAAAADYzWox3WxR/0s8P8jrlNJ1d+09AECRbKADAAAAADyju7J9s3X+xln14rfJbPmugc8BADRGQAcAAAAAeMJqMf2pe975a+fUqz9SSvPJbHnT0GcCAConoAMAAAAAbNHF8ytXtmezeS76qYgOAJTCM9ABAAAAAB6xWkzn4nl2m63+z90/VAAAGJ0NdAAAAACAB7p4/t/OZTC33Sb6dZDPCwAUygY6AAAAAMA94vkoNlv+VzbRAYCxCegAAAAAAB3xfFQiOgAwOgEdAAAAAEA8L4WIDgCMSkAHAAAAAMITz4siogMAoxHQAQAAAIDQxPMiiegAwCgEdAAAAAAgLPG8aCI6ADA4AR0AAAAACEk8r4KIDgAMSkAHAAAAAMIRz6siogMAgxHQAQAAAIBQxPMqiegAwCAEdAAAAAAgDPG8aiI6AJCdgA4AAAAAhCCeN0FEBwCyEtABAAAAgOaJ500R0QGAbAR0AAAAAKBp4nmTRHQAIAsBHQAAAABolnjeNBEdAOidgA4AAAAANEk8D0FEBwB6JaADAAAAAM0Rz0MR0QGA3gjoAAAAAEBTxPOQRHQAoBcCOgAAAADQDPE8NBEdADiagA4AAAAANEE8R0QHAI4loAMAAAAA1RPPuUdEBwAOJqADAAAAAFUTz3mEiA4AHERABwAAAACqJZ7zBBEdANibgA4AAAAAVEk8ZwciOgCwFwEdAAAAAKiOeM4eRHQAYGcCOgAAAABQFfGcA4joAMBOBHQAAAAAoBriOUcQ0QGAZwnoAAAAAEAVxHN6IKIDAE8S0AEAAACA4onn9EhEBwC2EtABAAAAgKKJ52QgogMAjxLQAQAAAIBiiedkJKIDAN8R0AEAAACAIonnDEBEBwC+IaADAAAAAMURzxmQiA4AfCWgAwAAAABFEc8ZgYgOAHwhoAMAAAAAxRDPGZGIDgAI6AAAAABAGcRzCiCiA0BwAjoAAAAAMDrxnIKI6AAQmIAOAAAAAIxKPKdAIjoABCWgAwAAAACjEc8pmIgOAAEJ6AAAAADAKMRzKiCiA0AwAjoAAAAAMDjxnIqI6AAQiIAOAAAAAAxKPKdCIjoABCGgAwAAAACDEc+pmIgOAAEI6AAAAADAIMRzGiCiA0DjBHQAAAAAIDvxnIaI6ADQMAEdAAAAAMhKPKdBIjoANEpABwAAAACyEc9pmIgOAA0S0AEAAACALMRzAhDRAaAxAjoAAAAA0DvxnEBEdABoiIAOAAAAAPRKPCcgER0AGiGgAwAAAAC9Ec8JTEQHgAYI6AAAAABAL8RzENEBoHYCOgAAAABwNPEcvhLRAaBiAjoAAAAAcBTxHL4jogNApQR0AAAAAOBg4jlsJaIDQIUEdAAAAADgIOI5PEtEB4DKCOgAAAAAwN7Ec9iZiA4AFRHQAQAAAIC9iOewNxEdACohoAMAAAAAOxPP4WAiOgBUQEAHAAAAAHYinsPRRHQAKJyADgAAAAA8SzyH3ojoAFAwAR0AAAAAeJJ4Dr0T0QGgUAI6AAAAALCVeA7ZiOgAUCABHQAAAAB4lHgO2YnoAFAYAR0AAAAA+I54DoMR0QGgIAI6AAAAAPAN8RwGJ6IDQCEEdAAAAADgK/EcRiOiA0ABBHQAAAAA4AvxHEYnogPAyAR0AAAAAEA8h3KI6AAwIgEdAAAAAIITz6E4IjoAjERABwAAAIDAxHMologOACMQ0AEAAAAgKPEciieiA8DABHQAAAAACEg8h2qI6AAwIAEdAAAAAIIRz6E6IjoADERABwAAAIBAxHOologOAAMQ0AEAAAAgCPEcqieiA0BmAjoAAAAABCCeQzNEdADISEAHAAAAgMaJ59AcER0AMhHQAQAAAKBh4jk0S0QHgAwEdAAAAABolHgOzRPRAaBnAjoAAAAANEg8hzBEdADokYAOAAAAAI0RzyEcER0AeiKgAwAAAEBDxHMIS0QHgB4I6AAAAADQCPEcwhPRAeBIAjoAAAAANEA8BzoiOgAcQUAHAAAAgMqJ58ADIjoAHEhABwAAAICKiefAFiI6ABxAQAcAAACASonnwDNEdADYk4AOAAAAABUSz4EdiegAsAcBHQAAAAAqI54DexLRAWBHAjoAAAAAVEQ8Bw4kogPADgR0AAAAAKiEeA4cSUQHgGcI6AAAAABQAfEc6ImIDgBPENABAAAAoHDiOdAzER0AthDQAQAAAKBg4jmQiYgOAI8Q0AEAAACgUOI5kJmIDgAPCOgAAAAAUCDxHBiIiA4A9wjoAAAAAFAY8RwYmIgOAB0BHQAAAAAKIp4DIxHRAQgvCegAAAAAUA7xHBiZiA5AeAI6AAAAABRAPAcKIaIDEJqADgAAAAAjE8+BwojoAIQloAMAAADAiMRzoFAiOgAhCegAAAAAMBLxHCiciA5AOAI6AAAAAIxAPAcqIaIDEIqADgAAAAADE8+ByojoAIQhoAMAAADAgMRzoFIiOgAhCOgAAAAAMBDxHKiciA5A8wR0AAAAABiAeA40QkQHoGkCOgAAAABkJp4DjRHRAWiWgA4AAAAAGYnnQKNEdACaJKADAAAAQCbiOdA4ER2A5gjoAAAAAJCBeA4EIaID0BQBHQAAAAB6Jp4DwYjoADRDQAcAAACAHonnQFAiOgBNENABAAAAoCfiORCciA5A9QR0AAAAAOiBeA7whYgOQNUEdAAAAAA4kngO8A0RHYBqCegAAAAAcATxHOBRIjoAVRLQAQAAAOBA4jnAk0R0AKojoAMAAADAAcRzgJ2I6ABURUAHAAAAgD2J5wB7EdEBqIaADgAAAAB7EM8BDiKiA1AFAR0AAAAAdiSeAxxFRAegeAI6AAAAAOxAPAfohYgOQNEEdAAAAAB4hngO0CsRHYBiCegAAAAA8ATxHCALER2AIgnoAAAAALCFeA6QlYgOQHEEdAAAAAB4hHgOMAgRHYCiCOgAAAAA8IB4DjAoER2AYgjoAAAAAHCPeA4wChEdgCII6AAAAADQEc8BRiWiAzA6AR0AAAAAxHOAUojoAIxKQAcAAAAgPPEcoCgiOgCjEdABAAAACE08ByiSiA7AKE7W67WTBwAAACCkLsz8j+kDFOs2pXQ6mS2vjQiAIdhABwAAACCkLp5fmT5A0WyiAzAoG+gAAAAAhLNaTF+klDbbjC9NH6AKNtEBGIQNdAAAAAAiuhLPAapiEx2AQQjoAAAAAISyWkzPU0qvTR2gOiI6ANm5wh0AAACAMFaL6duU0u8mDlA117kDkI2ADgAAAEAIq8X0Vffc8x9NHKB6IjoAWbjCHQAAAIAoLsRzgGa4zh2ALAR0AAAAAJq3WkzfpZTemDRAU0R0AHrnCncAAAAAmubqdoDmuc4dgN7YQAcAAACgdefiOUDTbKID0Bsb6AAAAAA0a7WYnqaU/mXCACHYRAfgaDbQAQAAAGjZhekChGETHYCjCegAAAAANGm1mM5TSi9NFyAUER2AowjoAAAAALTqvckChCSiA3AwAR0AAACA5tg+BwhPRAfgIAI6AAAAAC2yfQ6AiA7A3gR0AAAAAJpi+xyAe0R0APYioAMAAADQmncmCsA9IjoAOxPQAQAAAGjGajE9TSm9NlEAHhDRAdiJgA4AAABAS+amCcAWIjoAzzpZr9dOCQAAAIDqrRbTFyml/zNJAJ5xm1I6ncyW1w4KgIdsoAMAAADQircmCcAObKIDsJWADgAAAEArBHQAdiWiA/AoV7gDAAAAUD3XtwNwINe5A/ANG+gAAAAAtMD2OQCHsIkOwDcEdAAAAABaIKADcCgRHYCvBHQAAAAAWnBqigAcQUQH4AsBHQAAAICqrRbT0y58AMAxRHQABHQAAAAAqmf7HIC+iOgAwQnoAAAAANRO5ACgTyI6QGACOgAAAAC1s4EOQN9EdICgBHQAAAAAqrVaTF95/jkAmYjoAAEJ6AAAAADU7JXpAZCRiA4QjIAOAAAAQM1c3w5AbiI6QCACOgAAAAA1s4EOwBBEdIAgBHQAAAAAaiagAzAUER0gAAEdAAAAgJoJ6AAMSUQHaJyADgAAAEDNXpoeAAMT0QEaJqADAAAAAADsR0QHaJSADgAAAECVRAsARiaiAzRIQAcAAACgVi9MDoCRiegAjRHQAQAAAAAADieiAzREQAcAAAAAADiOiA7QCAEdAAAAAADgeCI6QAMEdAAAAAAAgH6I6ACVE9ABAAAAAAD6I6IDVExABwAAAAAA6JeIDlApAR0AAAAAAKB/IjpAhQR0AAAAAACAPER0gMqcrNdrMwMAAACgSqvF1C+3AKjBbUrpdDJbXpsWQNlsoAMAAAAAAORlEx2gEgI6AAAAADW7NT0AKiGiA1RAQAcAAACgZq7CBaAmIjpA4QR0AAAAAGp2Y3oAVEZEByiYgA4AAABAzWygA1AjER2gUAI6AAAAADX7bHoAVEpEByiQgA4AAABAzWygA1AzER2gMCfr9dpMAAAAAKjWajH1Cy4AanebUjqdzJb+YRjAyGygAwAAAFC7v0wQgMrZRAcohIAOAAAAQO1s6wHQAhEdoAACOgAAAAC1uzJBABohogOMTEAHAAAAoHYCOgAtEdEBRiSgAwAAAFC1yWx5k1L6ZIoANEREBxiJgA4AAABACz6aIgCNEdEBRiCgAwAAANACAR2AFonoAAM7Wa/XzhwAAACA6q0W088ppZcmCUCDblNKp5PZ8tpwAfKygQ4AAABAK2yhA9Aqm+gAAxHQAQAAAGjFuUkC0DARHWAAAjoAAAAATZjMlpsr3D+ZJgANE9EBMhPQAQAAAGiJLXQAWieiA2R0sl6vnS8AAAAAzVgtpjddXACAlt2mlE4ns+W1KQP0xwY6AAAAAK2xhQ5ABDbRATIQ0AEAAABozYWJAhCEiA7QMwEdAAAAgKZMZsvPKaUPpgpAECI6QI8EdAAAAABa9N5UAQhERAfoiYAOAAAAQHNsoQMQkIgO0AMBHQAAAIBWvUsp3ZouAIGI6ABHEtABAAAAaNJktrxJKZ2bLgDBiOgARzhZr9fODwAAAIBmrRbTzXXuL00YgGA2t7CcTmbLa4MH2J0NdAAAAABaNzdhAAKyiQ5wAAEdAAAAgKZNZsurlNIfpgxAQCI6wJ4EdAAAAAAimHdX2QJANCI6wB4EdAAAAACaN5ktb1zlDkBgIjrAjgR0AAAAAEKYzJYfU0q/mTYAQYnoADs4Wa/XzgkAAACAMFaL6XVK6bWJAxDU5pEmp5PZ8toPAMD3bKADAAAAEM1bz0MHIDCb6ABPENABAAAACGUyW37uIjoARCWiA2whoAMAAAAQzmS2vEop/bvJAxCYiA7wCAEdAAAAgJAms+VFSuk30wcgMBEd4IGT9XrtTAAAAAAIa7WYbkL6r34CAAjsNqV0Opktr/0QANHZQAcAAAAgtMlsOU8pfYh+DgCEZhMdoCOgAwAAABCeiA4AIjpAEtABAAAA4I6IDgAiOoCADgAAAAAdER0ARHQgNgEdAAAAAO4R0QFARAfiEtABAAAA4AERHQBEdCAmAR0AAAAAHiGiA4CIDsQjoAMAAADAFiI6AIjoQCwCOgAAAAA8QUQHABEdiENABwAAAIBniOgAIKIDMQjoAAAAALADER0ARHSgfQI6AAAAAOxIRAcAER1om4AOAAAAAHsQ0QFARAfaJaADAAAAwJ5EdAAQ0YE2CegAAAAAcAARHQBEdKA9AjoAAAAAHEhEBwARHWiLgA4AAAAARxDRAUBEB9ohoAMAAADAkUR0ABDRgTYI6AAAAADQAxEdAER0oH4COgAAAAD0REQHABEdqJuADgAAAAA9EtEBQEQH6iWgAwAAAEDPRHQAENGBOgnoAAAAAJCBiA4AIjpQHwEdAAAAADIR0QFARAfqIqADAAAAQEYiOgCI6EA9BHQAAAAAyExEBwARHaiDgA4AAAAAAxDRAUBEB8onoAMAAADAQER0ABDRgbIJ6AAAAAAwIBEdAER0oFwCOgAAAAAMTEQHABEdKJOADgAAAAAjENEBQEQHyiOgAwAAAMBIRHQAENGBsgjoAAAAADAiER0ARHSgHAI6AAAAAIxMRAcAER0og4AOAAAAAAUQ0QFARAfGJ6ADAAAAQCFEdAAQ0YFxCegAAAAAUBARHQBEdGA8AjoAAAAAFEZEBwARHRiHgA4AAAAABRLRAUBEB4YnoAMAAABAoUR0ABDRgWEJ6AAAAABQMBEdAER0YDgCOgAAAAAUTkQHABEdGIaADgAAAAAVENEBQEQH8hPQAQAAAKASIjoAiOhAXgI6AAAAAFRERAcAER3IR0AHAAAAgMqI6AAgogN5COgAAAAAUCERHQBEdKB/AjoAAAAAVEpEBwARHeiXgA4AAAAAFRPRAUBEB/ojoAMAAABA5UR0ABDRgX4I6AAAAADQABEdAER04HgCOgAAAAA0QkQHABEdOI6ADgAAAAANEdEBQEQHDiegAwAAAEBjRHQAENGBwwjoAAAAANAgER0ARHRgfwI6AAAAADRKRAcAER3Yj4AOAAAAAA0T0QFARAd2J6ADAAAAQONEdAAQ0YHdCOgAAAAAEICIDgAiOvA8AR0AAAAAghDRAUBEB54moAMAAABAICI6AIjowHYCOgAAAAAEI6IDgIgOPE5ABwAAAICARHQAENGB7wnoAAAAABCUiA4AIjrwLQEdAAAAAAIT0QFARAf+IaADAAAAQHAiOgCI6MAdAR0AAAAAENEBQESH8JKADgAAAAD8TUQHABEdohPQAQAAAICvRHQAENEhMgEdAAAAAPiGiA4AIjpEJaADAAAAAN8R0QFARIeIBHQAAAAA4FEiOgCI6BCNgA4AAAAAbCWiA4CIDpEI6AAAAADAk0R0ABDRIQoBHQAAAAB4logOACI6RCCgAwAAAAA7EdEBQESH1gnoAAAAAMDORHQAENGhZQI6AAAAALAXER0ARHRolYAOAAAAAOxNRAcAER1aJKADAAAAAAcR0QFARIfWCOgAAAAAwMFEdAAQ0aElAjoAAAAAcBQRHQBEdGiFgA4AAAAAHE1EBwARHVogoAMAAAAAvRDRAUBEh9oJ6AAAAABAb0R0ABDRoWYCOgAAAADQKxEdAER0qJWADgAAAAD0TkQHABEdaiSgAwAAAABZiOgAIKJDbQR0AAAAACAbER0ARHSoiYAOAAAAAGQlogOAiA61ENABAAAAgOxEdAAQ0aEGAjoAAAAAMAgRHQBEdCidgA4AAAAADEZEBwARHUomoAMAAAAAgxLRAUBEh1IJ6AAAAADA4ER0ABDRoUQCOgAAAAAwChEdAER0KI2ADgAAAACMRkQHABEdSiKgAwAAAACjEtEBQESHUgjoAAAAAMDoRHQAENGhBAI6AAAAAFAEER0ARHQYm4AOAAAAABRDRAcAER3GJKADAAAAAEUR0QFARIexCOgAAAAAQHFEdAAQ0WEMAjoAAAAAUCQRHQBEdBiagA4AAAAAFEtEBwARHYYkoAMAAAAARRPRAUBEh6EI6AAAAABA8UR0ABDRYQgCOgAAAABQBREdAER0yE1ABwAAAACqIaIDgIgOOQnoAAAAAEBVRHQAENEhFwEdAAAAAKiOiA4AIjrkIKADAAAAAFUS0QFARIe+CegAAAAAQLVEdAAQ0aFPAjoAAAAAUDURHQBEdOiLgA4AAAAAVE9EBwARHfogoAMAAAAATRDRAUBEh2MJ6AAAAABAM0R0ABDR4RgCOgAAAADQFBEdAER0OJSADgAAAAA0R0QHABEdDiGgAwAAAABNEtEBQESHfQnoAAAAAECzRHQAENFhHwI6AAAAANA0ER0ARHTYlYAOAAAAADRPRAcAER12IaADAAAAACGI6AAgosNzBHQAAAAAIAwRHQBEdHiKgA4AAAAAhCKiA4CIDtsI6AAAAABAOCI6AIjo8BgBHQAAAAAISUQHABEdHhLQAQAAAICwRHQAENHhPgEdAAAAAAhNRAcAER3+JqADAAAAAOGJ6AAgokMS0AEAAAAA7ojoACCig4AOAAAAANAR0QFARCc2AR0AAAAA4B4RHQBEdOI6Wa/Xxg8AAADAVmfzyxcppc0vT191r7///Leful+yPvQppXTT/bfN1+vu+6vNn/+8+OXaqVOy1WJ6kVL61ZAACOw2pXQ6mS39vY0wBHQAAAAAvjqbX77qgvhp93VbHO/Lpy6sf3n9efHLlWlQEhEdAER0YhHQAQAAAALrtss3sfxt9/VlAafxV0rp42ZT3ZY6JRDRAUBEJw4BHQAAACCYLpq/7V4/F/7p/7eL6RdiOmMS0QFARCcGAR0AAAAgiLP55SaYzyuI5ttsYvpFF9M/l/kWaZmIDgAiOu0T0AEAAAAa1m2bv+vCeQnXs/flj5TSuWemMzQRHQBEdNomoAMAAAA06Gx++Sql9D5A6PvUhfSLAt4LQYjoACCi0y4BHQAAAKAhgcL5Q5vr3d8L6QxFRAcAEZ02CegAAAAADbh3Vft/Bp/nX11Id7U72YnoACCi0x4BHQAAAKByZ/PLzfPNz1NKP5rlV5tnpL/78+KXz4W8HxologOAiE5bBHQAAACASp3NL3/qwvkbM3zUbbeNfl7ge6MhIjoAiOi0Q0AHAAAAqNDZ/PK969p3trnWfW4bnZxEdAAQ0WmDgA4AAABQkbP55auU0seU0mtz24ttdLIT0QFARKd+AjoAAABAJc7ml29TSheedX6UP7pt9JuKPwMFE9EBQESnbj+YHwAAAED5zuaXm83p38Xzo/2cUrrunh8PvZvMlvOU0gcnC0Bgm7+vXq0WU3/foko20AEAAAAKdja/fNFd2f7GnHp1222if2zoM1EQm+gAYBOdOtlABwAAAChU97zzK/E8i81m1O9n88t5g5+NAthEBwCb6NTJBjoAAABAgborxq9c2T6ID39e/CKkk4VNdACwiU5dbKADAAAAFEY8H9yvZ/PLi2CfmYHYRAcAm+jURUAHAAAAKIh4PhoRnWxEdAAQ0amHgA4AAABQCPF8dCI62YjoACCiUwcBHQAAAKAA4nkxRHSyEdEBQESnfAI6AAAAwMjE8+KI6GQjogOAiE7ZBHQAAACAEYnnxRLRyUZEBwARnXIJ6AAAAAAjEc+LJ6KTjYgOACI6ZRLQAQAAAEYgnldDRCcbER0ARHTKI6ADAAAADEw8r46ITjYiOgCI6JRFQAcAAAAYkHheLRGdbER0ABDRKYeADgAAADAQ8bx6IjrZiOgAIKJTBgEdAAAAYADieTNEdLIR0QFARGd8AjoAAABAZuJ5c0R0shHRAUBEZ1wCOgAAAEBG4nmzRHSyEdEBQERnPAI6AAAAQCbiefNEdLIR0QFARGccAjoAAABABuJ5GCI62YjoACCiMzwBHQAAAKBn4nk4IjrZiOgAIKIzLAEdAAAAoEfieVgiOtmI6AAgojMcAR0AAACgJ+J5eCI62YjoACCiMwwBHQAAAKAH4jkdEZ1sRHQAENHJT0AHAAAAOJJ4zgMiOtmI6AAgopOXgA4AAABwBPGcLUR0shHRAUBEJx8BHQAAAOBA4jnPENHJRkQHABGdPAR0AAAAgAOI5+xIRCcbER0ARHT6J6ADAAAA7Ek8Z08iOtmI6AAgotMvAR0AAABgD+I5BxLRyUZEBwARnf4I6AAAAAA7Es85kohONiI6AIjo9ENABwAAANiBeE5PRHSyEdEBQETneAI6AAAAwDPEc3omopONiA4AIjrHEdABAAAAniCek4mITjYiOgCI6BxOQAcAAADYQjwnMxGdbER0ABDROYyADgAAAPAI8ZyBiOhkI6IDgIjO/gR0AAAAgAfEcwYmopONiA4AIjr7EdABAAAA7hHPGYmITjYiOgCI6OxOQAcAAADoiOeMTEQnGxEdAER0diOgAwAAAIjnlENEJxsRHQBEdJ4noAMAAADhiecURkQnGxEdAER0niagAwAAAKGJ5xRKRCcbER0ARHS2E9ABAACAsMRzCieik42IDgAiOo8T0AEAAICQxHMqIaKTjYgOACI63xPQAQAAgHDEcyojopONiA4AIjrfEtABAACAUMRzKiWik42IDgAiOv8Q0AEAAIAwxHMqJ6KTjYgOACI6dwR0AAAAIATxnEaI6GQjogOAiI6ADgAAAAQgnnktJBEAACAASURBVNMYEZ1sRHQAENGjE9ABAACAponnNEpEJxsRHQBE9MgEdAAAAKBZ4jmNE9HJRkQHABE9KgEdAAAAaJJ4ThAiOtmI6AAgokckoAMAAADNEc8JRkQnGxEdAET0aAR0AAAAoCniOUGJ6GQjogOAiB6JgA4AAAA0QzwnOBGdbER0ABDRoxDQAQAAgCaI5/CFiE42IjoAiOgRCOgAAABA9cRz+IaITjYiOgCI6K0T0AEAAICqiefwKBGdbER0ABDRWyagAwAAANUSz+FJIjrZiOgAIKK3SkAHAAAAqiSew05EdLIR0QFARG+RgA4AAABURzyHvYjoZCOiA4CI3hoBHQAAAKiKeA4HEdHJRkQHABG9JQI6AAAAUA3xHI4iopONiA4AInorBHQAAACgCuI59EJEJxsRHQBE9BYI6AAAAEDxxHPolYhONiI6AIjotRPQAQAAgKKJ55CFiE42IjoAiOg1E9ABAACAYonnkJWITjYiOgCI6LUS0AEAAIAiiecwCBGdbER0ABDRaySgAwAAAMURz2FQIjrZiOgAIKLXRkAHAAAAiiKewyhEdLIR0QFARK+JgA4AAAAUQzyHUYnoZCOiA4CIXgsBHQAAACiCeA5FENHJRkQHABG9BgI6AAAAMDrxHIoiopONiA4AInrpBHQAAABgVOI5FElEJxsRHQBE9JIJ6AAAAMBoxHMomohONiI6AIjopRLQAQAAgFGI51AFEZ1sRHQAENFLJKADAAAAgxPP/5+9u8ltKzsXNbx8e2qVJyDYGYF1RlCqPgE7AAE1zczAdwTHGcF1RnDopgA2XAD7sWfgGsGRoQnILTV5sQ3KoW1K4s/+9l4/zwMIShxYIddSqSS9/NaCoojohBHRAUBEz42ADgAAAAxKPIciieiEEdEBQETPiYAOAAAADEY8h6KJ6IQR0QFARM+FgA4AAAAMQjyHKojohBHRAUBEz4GADgAAAIQTz6EqIjphRHQAENHHJqADAAAAocRzqJKIThgRHQBE9DEJ6AAAAEAY8RyqJqITRkQHABF9LAI6AAAAEEI8hyaI6IQR0QFARB+DgA4AAAD0TjyHpojohBHRAUBEH5qADgAAAPRKPIcmieiEEdEBQEQfkoAOAAAA9EY8h6aJ6IQR0QFARB+KgA4AAAD0QjwHRHQiiegAIKIPQUAHAAAAjiaeAxtEdMKI6AAgokcT0AEAAICjiOfAFiI6YUR0ABDRIwnoAAAAwMHEc+ABIjphRHQAENGjCOgAAADAQcRzYAciOmFEdAAQ0SMI6AAAAMDexHNgDyI6YUR0ABDR+yagAwAAAHsRz4EDiOiEEdEBQETvk4AOAAAA7Ew8B44gohNGRAcAEb0vAjoAAACwE/Ec6IGIThgRHQBE9D4I6AAAAMCjxHOgRyI6YUR0ABDRjyWgAwAAAA8Sz4EAIjphRHQAENGPIaADAAAA9xLPgUAiOmFEdAAQ0Q8loAMAAABbiefAAER0wojoACCiH0JABwAAAH4hngMDEtEJI6IDgIi+LwEdAAAA+IF4DoxARCeMiA4AIvo+BHQAAADgO/EcGJGIThgRHQBE9F0J6AAAAMA34jmQARGdMCI6AIjouxDQAQAAAPEcyImIThgRHQBE9McI6AAAANA48RzIkIhOGBEdAET0hwjoAAAA0DDxHMiYiE4YER0ARPT7COgAAADQKPEcKICIThgRHQBE9G0EdAAAAGiQeA4UREQnjIgOACL6zwR0AAAAaIx4DhRIRCeMiA4AIvomAR0AAAAaIp4DBRPRCSOiA4CIfkdABwAAgEaI50AFRHTCiOgAIKInAR0AAADaIJ4DFRHRCSOiA4CILqADAABA5cRzoEIiOmFEdABoO6IL6AAAAFAx8RyomIhOGBEdANqN6AI6AAAAVEo8BxogohNGRAeANiO6gA4AAAAVEs+BhojohBHRAaC9iC6gAwAAQGXEc6BBIjphRHQAaCuiC+gAAABQEfEcaJiIThgRHQDaiegCOgAAAFRCPAcQ0YkjogNAGxFdQAcAAIAKiOcA34nohBHRAaD+iC6gAwAAQOHEc4BfiOiEEdEBoO6ILqADAABAwcRzgHuJ6IQR0QGg3oguoAMAAEChxHOAR4nohBHRAaDOiC6gAwAAQIHEc4CdieiEEdEBoL6ILqADAABAYcRzgL2J6IQR0QGgroguoAMAAEBBxHOAg4nohBHRAaCeiC6gAwAAQCHEc4CjieiEEdEBoI6ILqADAABAAcRzgN6I6IQR0QGg/IguoAMAAEDmxHOA3onohBHRAaDsiC6gAwAAQMbEc4AwIjphRHQAKDeiC+gAAACQKfEcIJyIThgRHQDKjOgCOgAAAGRIPAcYjIhOGBEdAMqL6AI6AAAAZEY8BxiciE4YER0AyoroAjoAAABkRDwHGI2IThgRHQDKiegCOgAAAGRCPAcYnYhOGBEdAMqI6AI6AAAAZEA8B8iGiE4YER0A8o/oAjoAAACMTDwHyI6IThgRHQDyjugCOgAAAIxIPAfIlohOGBEdAPKN6AI6AAAAjEQ8B8ieiE4YER0A8ozoAjoAAACMQDwHKIaIThgRHQDyi+gCOgAAAAxMPAcojohOGBEdAPKK6AI6AAAADEg8ByiWiE4YER0A8onoAjoAAAAMRDwHKJ6IThgRHQDyiOhPVquVrQAAAIBg4jlAVd4v59OZLSXC7eVp9yKN1xYXgIZ9TSk9P7m4vhljCUygAwAAQDDxHKA6JtEJYxIdAL5Poj8dYykEdAAAAAgkngNUS0QnjIgOAOlFSmmU77UEdAAAAAgingNUT0QnjIgOAOnl7eXpu6GXwR3oAAAAEEA8B2iKO9EJ4050AEh/P7m4/jDUMgjoAAAA0DPxHKBJIjphRHQAGvc1pXR2cnF9NcQyOMIdAAAAeiSeAzTLce6EcZw7AI3rfr4ebAJdQAcAAICeiOcAzRPRCSOiA9C4F7eXp2+HWAJHuAMAAEAPxHMANjjOnTCOcwegcf91cnH9OXIJTKADAADAkcRzAH5iEp0wJtEBaFz491gCOgAAABxBPAfgHiI6YUR0ABrWHeX+JvLpO8IdAAAADiSeA7ADx7kTxnHuADTqa0rp+cnF9U3E0zeBDgAAAAcQzwHYkUl0wphEB6BR3c/h76Keugl0AAAA2JN4DsABTKITxiQ6AI3628nF9VXfT90EOgAAAOxBPAfgQCbRCWMSHYBGvY142ibQAQAAYEfiOQA9MIlOGJPoADSo9yl0E+gAAACwA/EcgJ6YRCeMSXQAGtT7FLoJdAAAAHiEeA5AAJPohDGJDkBjep1CN4EOAAAADxDPAQhiEp0wJtEBaMybPp+uCXQAAAC4h3gOwABMohPGJDoAjfiaUnp+cnF908fTNYEOAAAAW4jnAAzEJDphTKID0Iju5/ZXfT1VAR0AAAB+Ip4DMDARnTAiOgCN6O0Yd0e4AwAAwAbxHIAROc6dMI5zB6ABfzu5uL469mmaQAcAAIA18RyAkZlEJ4xJdAAa0Msx7gI6AAAAiOcA5ENEJ4yIDkDlejnJxxHuAAAANE88ByBDjnMnjOPcAajY0ce4m0AHAACgaeI5AJkyiU4Yk+gAVOzoY9wFdAAAAJolngOQORGdMCI6AJU6P/ZpCegAAAA0STwHoBAiOmFEdAAqJKADAADAvsRzAAojohNGRAegMr/dXp6eHfOUBHQAAACaIp4DUCgRnTAiOgCVOWoKXUAHAACgGeI5AIUT0QkjogNQERPoAAAA8BjxHIBKiOiEEdEBqISADgAAAA8RzwGojIhOGBEdgAq8OOYpCOgAAABUTTwHoFIiOmFEdABKd3t5evA96AI6AAAA1RLPAaiciE4YER2Awj099OEL6AAAAFRJPAegESI6YUR0AAp28D3oAjoAAADVEc8BaIyIThgRHYBCmUAHAACAJJ4D0C4RnTAiOgAFMoEOAAAA4jkAjRPRCSOiA9AKAR0AAIAqiOcA8I2IThgRHYCCOMIdAACAdonnAPADEZ0wIjoAhXhx6MMU0AEAACiaeA4AW4nohBHRAaiZgA4AAECxxHMAeJCIThgRHYBaCegAAAAUSTwHgJ2I6IQR0QGokYAOAABAccRzANiLiE4YER2A2gjoAAAAFEU8B4CDiOiEEdEBqImADgAAQDHEcwA4iohOGBEdgFoI6AAAABRBPAeAXojohBHRAaiBgA4AAED2xHMA6JWIThgRHYBMfDn0YQjoAAAAZE08B4AQIjphRHQAMnB16EMQ0AEAAMiWeA4AoUR0wojoAJRKQAcAACBL4jkADEJEJ4yIDsCITKADAABQD/EcAAYlohNGRAdgJAI6AAAAdRDPAWAUIjphRHQARiCgAwAAUD7xHABGJaITRkQHYGAHB/Qnq9XKZgEAADA68RwAsvF+OZ/ObAcRbi9PuxdpvLa4AEQ6ubh+cuiHN4EOAADA6MRzAMiKSXTCmEQHYABfjvm/ENABAAAYlXgOAFkS0QkjogMQ7PMxH15ABwAAYDTiOQBkTUQnjIgOQCABHQAAgPKI5wBQBBGdMCI6AEE+HvNhn6xWKxsDAADAoMRzACjO++V8OrNtRLi9PO1epPHa4gLQh5OL6yfHfBgT6AAAAAxKPAeAIplEJ4xJdAB69OnYDyWgAwAAMBjxHACKJqITRkQHoCcfjv0wAjoAAACDEM8BoAoiOmFEdAB6cNT958kd6AAAAAxBPAeA6rgTnTDuRAfgQF9OLq6fH7t4JtABAAAIJZ4DQJVMohPGJDoABzr6+PYkoAMAABBJPAeAqonohBHRAThAL9+XOMIdAACAEOI5ADTDce6EcZw7ADvq5fj2ZAIdAACACOI5ADTFJDphTKIDsKN3fS2UgA4AAECvxHMAaJKIThgRHYAd9PZ9iIAOAABAb8RzAGiaiE4YER2AB7w/ubi+6WuBBHQAAAB6IZ4DACI6kUR0AO7R6/ceAjoAAABHE88BgA0iOmFEdAB+8unk4vpjn4sioAMAAHAU8RwA2EJEJ4yIDsCGt30vhoAOAADAwcRzAOABIjphRHQAIqbPk4AOAADAocRzAGAHIjphRHSA5vU+fZ4EdAAAAA4hngMAexDRCSOiAzQrZPo8CegAAADsSzwHAA4gohNGRAdo0izqSQvoAAAA7Ew8BwCOIKITRkQHaMq/Ti6ur6KesIAOAADATsRzAKAHIjphRHSAJnyNuvv8joAOAADAo8RzAKBHIjphRHSA6s1OLq5vIp+kgA4AAMCDxHMAIICIThgRHaBaf55cXH+IfnICOgAAAPcSzwGAQCI6YUR0gOp86abPh3hSAjoAAABbiecAwABEdMKI6ABVCT+6/Y6ADgAAwC/EcwBgQCI6YUR0gCr88+Ti+uNQT+TJarXyaQMAAMB34jkAMJL3y/l0kKNZac/t5Wn3Io3Xth6gON2956+GfNAm0AEAAPhOPAcARmQSnTAm0QGK9NdQ955vEtABAAD4RjwHADIgohNGRAcoytch7z3fJKADAAAgngMAORHRCSOiAxShi+fnJxfXn8d4sAI6AABA48RzACBDIjphRHSA7L0ZK54nAR0AAKBt4jkAkDERnTAiOkC2/nFycT3qv/8FdAAAgEaJ5wBAAUR0wojoANkZPZ4nAR0AAKBN4jkAUBARnTAiOkA2sojnSUAHAABoj3gOABRIRCeMiA4wumzieRLQAQAA2iKeAwAFE9EJI6IDjCareJ4EdAAAgHaI5wBABUR0wojoAIPLLp4nAR0AAKAN4jkAUBERnTAiOsBgsoznSUAHAACon3gOAFRIRCeMiA4QLtt4ngR0AACAuonnAEDFRHTCiOgAYbKO50lABwAAqJd4DgA0QEQnjIgO0Lvs43kS0AEAAOokngMADRHRCSOiA/SmiHieBHQAAID6iOcAQINEdMKI6ABHKyaeJwEdAACgLuI5ANAwEZ0wIjrAwYqK50lABwAAqId4DgAgohNHRAfYW3HxPAnoAAAAdRDPAQC+E9EJI6ID7KzIeJ4EdAAAgPKJ5wAAvxDRCSOiAzyq2HieBHQAAICyiecAAPcS0QkjogPcq+h4ngR0AACAconnAACPEtEJI6ID/KL4eJ4EdAAAgDKJ5wAAOxPRCSOiA3xXRTxPAjoAAEB5xHMAgL2J6IQR0QHqiedJQAcAACiLeA4AcDARnTAiOtCwquJ5EtABAADKIZ4DABxNRCeMiA40qLp4ngR0AACAMojnAAC9EdEJI6IDDakynicBHQAAIH/iOQBA70R0wojoQAOqjedJQAcAAMibeA4AEEZEJ4yIDlSs6nieBHQAAIB8iecAAOFEdMKI6ECFqo/nSUAHAADIk3gOADAYEZ0wIjpQkSbieRLQAQAA8iOeAwAMTkQnjIgOVKCZeJ4EdAAAgLyI5wAAoxHRCSOiAwVrKp4nAR0AACAf4jkAwOhEdMKI6ECBmovnSUAHAADIg3gOAJANEZ0wIjpQkCbjeRLQAQAAxieeAwBkR0QnjIgOFKDZeJ4EdAAAgHGJ5wAA2RLRCSOiAxlrOp4nAR0AAGA84jkAQPZEdMKI6ECGmo/nSUAHAAAYh3gOAFAMEZ0wIjqQEfF8TUAHAAAYmHgOAFAcEZ0wIjqQAfF8g4AOAAAwIPEcAKBYIjphRHRgROL5TwR0AACAgYjnAADFE9EJI6IDIxDPtxDQAQAABiCeAwBUQ0QnjIgODEg8v4eADgAAEEw8BwCojohOGBEdGIB4/gABHQAAIJB4DgBQLRGdMCI6EEg8f4SADgAAEEQ8BwConohOGBEdCCCe70BABwAACCCeAwA0Q0QnjIgO9Eg835GADgAA0DPxHACgOSI6YUR0oAfi+R4EdAAAgB6J5wAAzRLRCSOiA0cQz/ckoAMAAPREPAcAaJ6IThgRHTiAeH4AAR0AAKAH4jkAAGsiOmFEdGAP4vmBBHQAAIAjiecAAPxERCeMiA7sQDw/goAOAABwBPEcAIB7iOiEEdGBB4jnRxLQAQAADiSeAwDwCBGdMCI6sIV43gMBHQAA4ADiOQAAOxLRCSOiAxvE854I6AAAAHsSzwEA2JOIThgRHRDP+yWgAwAA7EE8BwDgQCI6YUR0aJp43jMBHQAAYEfiOQAARxLRCSOiQ5PE8wACOgAAwA7EcwAAeiKiE0ZEh6aI50EEdAAAgEeI5wAA9ExEJ4yIDk0QzwMJ6AAAAA8QzwEACCKiE0ZEh6qJ58EEdAAAgHuI5wAABBPRCSOiQ5XE8wEI6AAAAFuI5wAADEREJ4yIDlURzwcioAMAAPxEPAcAYGAiOmFEdKiCeD4gAR0AAGCDeA4AwEhEdMKI6FA08XxgAjoAAMCaeA4AwMhEdMKI6FAk8XwEAjoAAIB4DgBAPkR0wojoUBTxfCQCOgAA0DzxHACAzIjohBHRoQji+YgEdAAAoGniOQAAmRLRCSOiQ9bE85EJ6AAAQLPEcwAAMieiE0ZEhyyJ5xl4slqtWl8DAACgQZPZ4mlK6Uo8BwCgAO+X8+nMRhHh9vK0i3WvLS6MTjzPhAl0AACgOet4bvIcAIBSmEQnjEl0yIJ4nhEBHQAAaFH3Q+kLOw8AQEFEdMKI6DAq8TwzAjoAANCUyWzxNqX00q4DAFAgEZ0wIjqMQjzPkDvQAQCAZkxmi/OU0r/tOAAAhXMnOmHciQ6DEc8zJaADAABNWN97fuXecwAAKiGiE0ZEh3DiecYc4Q4AALTig3gOAEBFHOdOGMe5QyjxPHMCOgAAUL3JbPEmpfS7nQYAoDIiOmFEdAghnhfAEe4AAEDVJrPF85TSZ9PnAABUzHHuhHGcO/RGPC+ECXQAAKB278RzAAAqZxKdMCbRoRfieUEEdAAAoFqT2eJVSumlHQYAoAEiOmFEdDiKeF4YAR0AAKjZO7sLAEBDRHTCiOhwEPG8QAI6AABQpcls8Tal9MzuAgDQGBGdMCI67EU8L9ST1WrV+hoAAACVmcwWT1NKV+4+BwCgYe+X8+nMJwARbi9Puyj42uLCvcTzgplABwAAavRGPAcAoHEm0QljEh0eJJ4XzgQ6AABQFdPnAADwA5PohDGJDr8QzytgAh0AAKiN6XMAAPgPk+iEMYkOPxDPKyGgAwAAtTFdAwAAPxLRCSOiwzfieUUEdAAAoBqT2aL7xc0zOwoAAL8Q0QkjotM48bwyAjoAAFAT0+cAAHA/EZ0wIjqNEs8r9GS1WrW+BgAAQAUms8XzlNL/2ksAAHjU++V86sWnhLi9PO1i4murSwPE80qZQAcAAGrxxk4CAMBOTKITxiQ6jRDPKyagAwAAtXhlJwEAYGciOmFEdConnldOQAcAAIo3mS3OUkrP7CQAAOxFRCeMiE6lxPMGCOgAAEAN3N8IAACHEdEJI6JTGfG8EQI6AABQA8e3AwDA4UR0wojoVEI8b4iADgAAFM3x7QAA0AsRnTAiOoUTzxsjoAMAAKU7t4MAANALEZ0wIjqFEs8bJKADAAClE9ABAKA/IjphRHQKI543SkAHAABKJ6ADAEC/RHTCiOgUQjxvmIAOAAAUa33/+W92EAAAeieiE0ZEJ3PieeMEdAAAoGRndg8AAMKI6IQR0cmUeI6ADgAAFE1ABwCAWCI6YUR0MiOe842ADgAAlExABwCAeCI6YUR0MiGe852ADgAAlExABwCAYYjohBHRGZl4zg8EdAAAoGS/2T0AABiMiE4YEZ2RiOf8QkAHAACKNJktzu0cAAAMTkQnjIjOwMRzthLQAQAAAACAfYjohBHRGYh4zr0EdAAAoFTuPwcAgPGI6IQR0QkmnvMgAR0AACjVUzsHAACjEtEJI6ITRDznUQI6AAAAAABwKBGdMCI6PRPP2YmADgAAlOq5nQMAgCyI6IQR0emJeM7OBHQAAKBUAjoAAORDRCeMiM6RxHP2IqADAAAAAAB9ENEJI6JzIPGcvQnoAAAAAABAX0R0wojo7Ek85yACOgAAAAAA0CcRnTAiOjsSzzmYgA4AAAAAAPRNRCeMiM4jxHOOIqADAAAAAAARRHTCiOjcQzznaAI6AABQqis7BwAA2RPRCSOi8xPxnF4I6AAAQKkEdAAAKIOIThgRnTXxnN4I6AAAAAAAQDQRnTAievPEc3oloAMAAKW6sXMAAFAUEZ0wInqzxHN6J6ADAACl+mznAACgOCI6YUT05ojnhBDQAQAAAACAIYnohBHRmyGeE+bJarWyugAAQJEms4UfaAAAoFzvl/PpzP4R4fbytIurry1ulcRzQplABwAASvbV7gEAQLFMohPGJHq1xHPCCegAAEDJ3IMOAABlE9EJI6JXRzxnEAI6AABQMgEdAADKJ6ITRkSvhnjOYAR0AACgZAI6AADUQUQnjIhePPGcQQnoAABAyQR0AACoh4hOGBG9WOI5g3uyWq2sOgAAUKzJbHGTUvrNDgIAQDXeL+fTme0kwu3laRdjX1vcIojnjMIEOgAAULqPdhAAAKpiEp0wJtGLIZ4zGgEdAAAonYAOAAD1EdEJI6JnTzxnVAI6AABQOgEdAADqJKITRkTPlnjO6NyBDgAAFG8yW1yllJ7ZSQAAqJI70QnjTvSsiOdkwQQ6AABQgw92EQAAqmUSnTAm0bMhnpMNAR0AAKiBH7IBAKBuIjphRPTRiedkxRHuAABAFRzjDgAATXCcO2Ec5z4K8ZzsmEAHAABq4Rh3AACon0l0wphEH5x4TpYEdAAAoBbv7CQAADShi+im0Amxjuj/srqhvqaU/ks8J1cCOgAAUIXlfNod4f7JbgIAQBP+ZzJbvLLVRDi5uH7TTUdb3BBfUkrnJxfXnyt8blRCQAcAAGri1esAANCO+WS2OLPfRFhPR/+xnpamH3+llM7Ec3L3ZLVa2SQAAKAak9mim0R/ZkcBAKAJ3TTr2XI+vbHdRLi9PH2eUvqQUnphgY/yr/VkP2TPBDoAAFAbU+gAANCOZ34GINLJxfXVycX1mXvRD9ZN8P9dPKckAjoAAFCbd47YAwCApryczBbiHKHWAfjvft7cy6f1ke0fCnrM4Ah3AACgPpPZ4m1K6b9tLQAANOPr+ij3K1tOpNvL06frUw9eWuh7df88vj25uH6X6eODB5lABwAAamQKHQAA2vKbo9wZwsnF9c3JxfWrlNIf6zv4+dGf66lz8ZximUAHAACqZAodAACa9H+X86lwx2BuL0+7nz3frF/E0bLuxQSzk4vrjz77KJ2ADgAAVGsyW3THNz6zwwAA0AxHuTO49bHu3Qs3Xje4+l/Wx7U7AYJqOMIdAACo2Ru7CwAATfltHTJhMOtj3Wcppb+llN43svJdOP/HycX1c/Gc2phABwAAqjaZLT6klF7aZQAAaMofy/nUUdKM4vby9Hl3nHmlR7v/1b1IRTSnZibQAQCA2r1ZH+MIAAC04629ZiwnF9dXJxfX3edgF9L/sY7Opesm6/84ubg+E8+pnQl0AACgepPZoovo/89OAwBAU/6xnE+FPrKwnkrvfjZ9lVJ6Vsiu/JlS6k51+9AdU5/B44FBCOgAAEATJrNFd3zj73YbAACa8WU5nz633eTm9vL0bB3Su7cXGT287vS2j6I5rRPQAQCAJkxmi6cppasK758DAADuZwqdrN1ennY/q56v384GfuH3XTD/3L0/ubj+6LMFBHQAAKAhk9mi+4XEv+05AAA046/lfHpmuynJekL9bH2Hevf+6fr9oS8I/7J+QfndWxfKu3var3xiwK8EdAAAoCmT2eJtSum/7ToAADTjj+V8arKWatxenp7v8FxuTi6uP9t12J+ADgAANGcyW3T3ub208wAA0IQ/l/PpK1sNwC7+j1UCAAAaNOuOcrTxAADQhJeT2eK5rQZgFwI6AADQnOV8epNS6iZQvtp9AABowsw2A7ALAR0AAGjScj69Simdi+gAANAEAR2AnQjoAABAs5bz6WcRHQAAmvBsMluc2WoAHiOgAwAATRPRAQCgGabQAXiUgA4AADRPhL7ArgAAIABJREFURAcAgCa8ss0APEZABwAAENEBAKAFjnEH4FECOgAAwJqIDgAA1Tu3xQA8REAHAADYIKIDAEDVHOMOwIMEdAAAgJ+I6AAAUK3fbS0ADxHQAQAAthDRAQCgTpPZwjHuANxLQAcAALiHiA4AAFU6s60A3EdABwAAeICIDgAA1RHQAbiXgA4AAPAIER0AAKoioANwLwEdAABgByI6AABU44WtBOA+AjoAAMCORHQAAKjDZLYwhQ7AVgI6AADAHkR0AACowlPbCMA2AjoAAMCeRHQAACjeuS0EYBsBHQAA4AAiOgAAAEB9BHQAAIADiegAAFAsd6ADsJWADgAAcAQRHQAAiuQOdAC2EtABAACOJKIDAAAA1EFABwAA6IGIDgAARTGBDsBWAjoAAEBPRHQAACjGC1sFwDYCOgAAQI9EdAAAAIByCegAAAA9E9EBAAAAyiSgAwAABBDRAQAAAMojoAMAAAQR0QEAAADKIqADAAAEEtEBACBLvj8HYCsBHQAAIJiIDgAA2flsSwDYRkAHAAAYgIgOAAAAkD8BHQAAYCAiOgAAAEDeBHQAAIABiegAAJAFR7gDsJWADgAAMDARHQAARndjCwDYRkAHAAAYgYgOAACjurL8AGwjoAMAAIxERAcAgNEI6ABsJaADAACMSEQHAIBRuAMdgK0EdAAAgJGJ6AAAMKivy/nUHegAbCWgAwAAZEBEBwCAwZg+B+BeAjoAAEAmRHQAABiEgA7AvQR0AACAjIjoAAAQ7qMlBuA+AjoAAEBmRHQAAAhlAh2AewnoAAAAGRLRAQAgxJflfHplaQG4j4AOAACQKREdAAB65/h2AB4koAMAAGRMRAcAgF59sJwAPERABwAAyJyIDgAAvTGBDsCDBHQAAIACiOgAAHC0P5fz6Y1lBOAhAjoAAEAhRHQAADiK49sBeJSADgAAUBARHQAADiagA/AoAR0AAKAwIjoAAOzN8e0A7ERABwAAKJCIDgAAe5lbLgB28WS1WlkoAACAQk1mi7OU0seU0m/2EAAAtvqynE+fWxoAdmECHQAAoGAm0QEA4FGmzwHYmYAOAABQOBEdAAAe9M7yALArAR0AAKACIjoAAGz1fjmf3lgaAHYloAMAAFRCRAcAgF+8tSQA7ENABwAAqIiIDgAA33XT51eWA4B9COgAAACVEdEBAOAb0+cA7E1ABwAAqJCIDgBA4/5p+hyAQwjoAAAAlRLRAQBoVPf97zubD8AhBHQAAICKiegAADTozXI+vbHxABziyWq1snAAAACVm8wWZymljyml3+w1AAAV+7ScT89tMACHMoEOAADQAJPoAAA04o2NBuAYAjoAAEAjRHQAACr3z/X3vABwMEe4AwAANMZx7gAAVOiv5Xx6ZmMBOJYJdAAAgMaYRAcAoDLd97WvbCoAfRDQAQAAGiSiAwBQkdlyPr2yoQD0QUAHAABolIgOAEAF/rWcTz/YSAD64g50AACAxrkTHQCAQn1azqfnNg+APplABwAAaJxJdAAACvSXe88BiGACHQAAgG9MogMAUIjuhZ9n7j0HIIIJdAAAAL4xiQ4AQAG671XPxXMAogjoAAAAfCeiAwCQsbt4/tkmARBFQAcAAOAHIjoAABkSzwEYhIAOAADAL0R0AAAyIp4DMBgBHQAAgK1EdAAAMiCeAzAoAR0AAIB7iegAAIxIPAdgcAI6AAAADxLRAQAYgXgOwCgEdAAAAB4logMAMCDxHIDRCOgAAADsREQHAGAA4jkAoxLQAQAA2JmIDgBAIPEcgNEJ6AAAAOxFRAcAIIB4DkAWBHQAAAD2JqIDANAj8RyAbAjoAAAAHEREBwCgB+I5AFkR0AEAADiYiA4AwBHEcwCyI6ADAABwFBEdAIADiOcAZElABwAA4GgiOgAAexDPAciWgA4AAEAvRHQAAHYgngOQNQEdAACA3ojoAAA8QDwHIHsCOgAAAL0S0QEA2EI8B6AIAjoAAAC9E9EBANggngNQDAEdAACAECI6AADiOQClEdABAAAII6IDADRNPAegOAI6AAAAoUR0AIAmiecAFElABwAAIJyIDgDQFPEcgGIJ6AAAAAxCRAcAaIJ4DkDRBHQAAAAGI6IDAFRNPAegeAI6AAAAgxLRAQCqJJ4DUAUBHQAAgMGJ6AAAVRHPAaiGgA4AAMAoRHQAgCqI5wBURUAHAABgNCI6AEDRxHMAqiOgAwAAMCoRHQCgSOI5AFUS0AEAABidiA4AUBTxHIBqCegAAABkQUQHACiCeA5A1QR0AAAAsiGiAwBkTTwHoHoCOgAAAFkR0QEAsiSeA9AEAR0AAIDsiOgAAFkRzwFohoAOAABAlkR0AIAsiOcANEVABwAAIFsiOgDAqMRzAJojoAMAAJA1ER0AYBTiOQBNEtABAADInogOADAo8RyAZgnoAAAAFEFEBwAYhHgOQNMEdAAAAIohogMAhBLPAWiegA4AAEBRRHQAgBDiOQDNSwI6AAAAJRLRAQB6JZ4DwJqADgAAQJFEdACAXojnALBBQAcAAKBYIjoAwFHEcwD4iYAOAABA0UR0AICDiOcAsIWADgAAQPFEdACAvYjnAHAPAR0AAIAqiOgAADsRzwHgAQI6AAAA1RDRAQAeJJ4DwCMEdAAAAKoiogMAbCWeA8AOBHQAAACqI6IDAPxAPAeAHQnoAAAAVElEBwD4RjwHgD08Wa1W1gsAAIBqTWaLs5TSx5TSb3YZRvdXSulm/SC69z/HnM8b//sPf76cT7f9+cEms8X5PX/35z9/vn6787tPI6Ag4jkA7ElABwAAoHoiOoS6i+KbQfx7CF/Opx9rXf7115an6/96F943g7vYDoxJPAeAAwjoAAAANEFEh4N9Wv/Fj5vvaw7jfdsI7dve+5oERBDPAeBAAjoAAADNENHhXt0U+dV6cvzq7j/3fWw6262Pk78L6ncT7KbXgUOJ5wBwBAEdAACApojoNO7TRiDv/jm4Ws6nV60vSq4ms8VdVL8L62em1oFHiOcAcCQBHQAAgOaI6DTg63qa/OPdVLmYUo/JbHE3pX6+EdWftb4ugHgOAH0Q0AEAAGiSiE5Fvm6E8o+OXm/TT9Pq56I6NEc8B4CeCOgAAAA0S0SnUJ9+iuWOYGerjah+vhHVfb2D+ojnANAjAR0AAICmiehk7m66/C6Wf7RhHGP9NW8zqptSh7KJ5wDQMwEdAACA5onoZOTLT8FcECHU+j71c0EdiiSeA0AAAR0AAABEdMazOWH+wXHsjE1Qh2KI5wAQREAHAAAOso6NTx/4uzd+oUdpRHQG0t1h/qH7XPN1ktytg/qrjaDu6yOMTzwHgEACOgAAsNU6JD5f35P6fOPtkEm07pd83S/4btbvu7crv/QjRyI6Ae6OZb+L5jcWmVJNZovzjaD+wkbC4MRzAAgmoAMAAN+sfyF+9/b7gKvyaR3UPwpL5EJEpwemzKnexnHvXVB/acchnHgOAAMQ0AEAoFEbR7K+GjiYP+YuOrkLmFGJ6Ozp68aU+QcvBqJFk9ni1cb3Fr52Qr/EcwAYiIAOAAANmcwW3Z3ls/VbCceu/pVSmovpjEVE5xFfN4L5B4sF/7H++jlbx/RDrn8B/kM8B4ABCegAANCA9fHsbwo/XvXPLqaLVAxNROcnojnsSUyHo4jnADAwAR0AACo2mS26X1a/reyX1V9SSu/WMd0RyQxCRG+eaA49EdNhL+I5AIxAQAcAgMqsj2l/s36rOfZ9XYf0d0I6QxDRm/ReNIc466+rb9yZDluJ5wAwEgEdAAAqUunE+WO+riP627wfJjUQ0Zvw58a0uRfnwEAms8WrdUh/bc1BPAeAMQnoAABQgfUd5/PGj0LtjnZ/Y1KUaCJ6le6uhuii+VXriwFjWp+k82p9zPvvNoMGiecAMDIBHQAACrb+JXMXzl/ax+8+db90///s3U1uHEeCsOFwYza1EucACXJOIPUJxN4TEBsooJYqn8CcE5g+gdkncGmZAIGhgNo3eQJTJxgSdYCPXOWSH1ITsmmJFOsnsyoj4nkAoQcNDNqOyKxM1VsRIYLRJxE9C1/ONT8TKWCYjqbnB4+2eHdeOiUQzwFgAAR0AABIVNzqdCbgPan98vF0PhufDfCfjUyI6Mm6ip+dtmiHhMT3nqkfDZIx8RwABkJABwCAxFh1vpI2lB2LZPRFRE/GffzcPLM7BaQtrkqfxj9WpZML8RwABkRABwCAhMRYd+EL45Xcxy3dnY1OL0T0QfsUo/ms9IGAHFmVTibEcwAYGAEdAAAScTQ9b88A/dV8re2X+Wx8mug/OwMnog/OB2ebQzkenZU+9TlMYsRzABggAR0AABJwND1vV0++N1cb+xhXo9vSnc6J6Dt3+2ibdvc4FOpoej6NMf21a4CBE88BYKAEdAAAGLB43vmlL4E79Sl+WSmw0TkRfSeu2nBum3bgsaPp+WEM6bZ3Z4jEcwAYMAEdAAAGSjzvlS8t6Y2IvjUfYji/LOTfF1hD3N69PcLl2OcyA+E9FAAGTkAHAIABEuC2wpeX9MY93Jv2vr1oY9h8Nr7J9N8R6EH8YeJJ/OOzmV3x/gkACRDQAQBgYIS3rfIlJr1xL3eqvVfPnG8OdCGek96uSt83oGyR904ASISADgAAAyK47YQvM+mNe3pjtzGcz4RzoGtCOlvkfRMAEiKgAwDAQAhtO+VLTXrj3l7LbdymfZbgPzuQmKPp+WEM6W/NHT3wngkAiRHQAQBgAAS2QfDlJr1xjy9NOAd2RkinB94vASBBAjoAAOyYsDYovuSkN+717xLOgcEQ0umI90oASJSADgAAOySoDZIvO+mNe/4bwjkwWEI6G/A+CQAJE9ABAGBHhLRB86UnvXHvfyacA8mIIf0shPDarLEE75EAkDgBHQAAdkBAS4IvP+lNwZ8B9zGcnw3gnwVgJUfT82lckb5v5HiG90cAyICADgAAWyaeJ8WXoPSmsM+C+7h682w+G98N4J8HYG1COs/w3ggAmRDQAQBgi8TzJPkylN4U8pnwIYRwIpwDOTmanu+1n23xj/c6vC8CQEYEdAAA2BLxPGm+FKU3GX82fIzh/GYA/ywAvYghvV2N/pMRLpb3RADIjIAOAABbIJ5nwZej9Cazz4ireM755QD+WQC24mh6fhCPqnhnxIvi/RAAMiSgAwBAz8TzrPiSlN5k8FlxG8P5bAD/LAA7cTQ9P4wh/bUZyJ73QgDIlIAOAAA9Es+z5MtSepPoZ8Z9jEVnzjkH+D9H0/Np/Gz0Dpgn74MAkDEBHQAAeiKeZ82XpvQmsc8O55wDPMP56NnyHggAmRPQAQCgB+J5EXx5Sm8S+Az5FMO5c84BXhDPR2+Pt3hrrJLn/Q8ACiCgAwBAx8TzovgSld4M9LPkPp5zfjaAfxaApBxNz4/jtu77Zi5J3vsAoBACOgAAdEg8L5IvU+nNwD5T2u3ap845B1hf3Nb9JITws2FMivc9ACiIgA4AAB0Rz4vmS1V6M4DPltsYzm3XDtCR+Nl+Zlv3JHjPA4DCCOgAANAB8RxfrtKnHX7G/DKfjU9NLkA/jqbn7Wr0U++Qg+X9DgAKJKADAMCGxHMe8SUrvdnyZ81VXHV+Y0YB+hW3dZ+FEN4Z6kHxXgcAhRLQAQBgA+I5T/BlK73ZwmdOe/2ezmfjM7MIsF1H0/PDGNL3Df3OeZ8DgIL9zeQDAMB6xHOe0V4Pl/H6gE7FL/IP4xf7XfsYQngjngPsxnw2bt8r2/eHf5mCnRLPAaBwVqADAMAaxHOW4MtXetPxZ9B93K79wowBDIPV6Dvj/Q0AsAIdAABWJZ6zJCvR6U2HK9HbVecH4jnAsFiNvhPiOQDwmRXoAACwAvGcNfgylt5s8Jlk1TlAIqxG3wrvawDAH6xABwCAJYnnrMlKdHqz5kp0q84BEmI1eu/EcwDgL6xABwCAJYjndMCXs/Rmyc+o9ho8mc/GMzMBkCar0Tvn/QwA+IaADgAALxDP6ZAvaenNC59VV3HL9hszAJC2o+n5Xozo70zlRryXAQBPEtABAOA7xHN64MtaevPMZ9Yv89n41KgD5OVoen4cQ7r31NV5HwMAniWgAwDAM8RzeuRLW3rz6LPrJq46d50BZOpoen4QI/pbc7w072EAwHcJ6AAA8ATxnC3w5S29iUHlbj4b3xllgPwdTc/bnUZ+NtUv8v4FALxIQAcAgK+I52yRL3EBgE7Ed9iLEMK+EX2S9y4AYCl/M0wAAPAn8Zwta6+zy3jdAQCsLYbh9p3io1H8hngOACzNCnQAAIjEc3bIl7oAQGeOpucnIYRfjehn3rMAgJUI6AAAIJ4zDL7cBQA6Y0v3z7xfAQArs4U7AADFE88ZCNu5AwCdsaW7eA4ArMcKdAAAiiaeM0C+7AUAOlXglu7epwCAtQnoAAAUSzxnwHzpCwB0qqB3X+9RAMBGbOEOAECRxHMGznbuAECnYlA+CCF8ynhkxXMAYGNWoAMAUBzxnIT4EhgA6NzR9PwshPBTZiPrvQkA6IQV6AAAFEU8JzFWogMAnZvPxu2Z6D/G6JwD8RwA6IwV6AAAFEM8J2G+FAYAOpfJ+7H3JACgU1agAwBQBPGcxFmJDgB0LoNz0cVzAKBzVqADAJA98ZyM+JIYAOjF0fR8FkJ4n9Doei8CAHphBToAAFkTz8mMlegAQC/ms/E0hPDfiYyueA4A9MYKdAAAsiWekzFfGgMAvTianh+HEGYDfof2HgQA9EpABwAgS+I5BfDlMQDQi/gufRFC2B/YCHv/AQB6J6ADAJAd8ZyC+BIZAOjF0fR8L75Tvx7ICHvvAQC2whnoAABkRTynMM5EBwB6MZ+N79pgHUL4OIARFs8BgK2xAh0AgGyI5xTMl8oAQG+OpuftmejvdzTC3nMAgK2yAh0AgCyI5xTOSnQAoDfz2XgaQvhxByMsngMAWyegAwCQPPEcPhPRAYDezGfj2ZYjungOAOyELdwBAEiaeA7f8GUzANCbLb1/e58BAHbGCnQAAJIlnsOTrEQHAHoTo/ZhjNx9EM8BgJ0S0AEASJJ4Dt8logMAvXkU0T91/L8hngMAO2cLdwAAkiOew9J8CQ0A9OZoer4X38tfd/C/4b0FABgEK9ABAEiKeA4rsRIdAOjNfDa+62glungOAAyGgA4AQDLEc1iLiA4A9OZRRP+45v+GeA4ADIot3AEASIJ4Dhvz5TQA0Kuj6fkshPB+hf8N7ycAwOBYgQ4AwOCJ59AJK9EBgF7NZ+NpCOHDkv8b4jkAMEgCOgAAgyaeQ6dEdACgV0tGdPEcABgsAR0AgMESz6EXIjoA0KsXIrp4DgAMmoAOAMAgiefQKxEdAOjVMxFdPAcABk9ABwBgcMRz2AoRHQDo1VcRXTwHAJLww8PDg5kCAGAwxHPYOl9mAwC9Opqen4UQZt43AIAUCOgAAAyGeA47I6IDAAAAxQu2cAcAYCjEc9gp27kDAAAAxQsCOgAAQyCewyCI6AAAAEDxBHQAAHZKPIdBEdEBAACAognoAADsjHgOgySiAwAAAMUS0AEA2AnxHAZNRAcAAACKJKADALB14jkkQUQHAAAAiiOgAwCwVeI5JEVEBwAAAIoioAMAsDXiOSRJRAcAAACKIaADALAV4jkkTUQHAAAAiiCgAwDQO/EcsiCiAwAAANkT0AEA6JV4DlkR0QEAAICsCegAAPRGPIcsiegAAABAtn54eHgwuwAAdE48h+zdhxAO57PxtakGtqGpq/bdYm+D/6m70WThMwsAAPguAR0AgM6J51AMER1YWVNXh/H/5yD++fr/br3Z0ntE+zn2+DPsJv4J8b+/a/+P0WRxuYV/FgAAYAAEdAAAOiWeQ3FEdOAvYiDfixH88X++zmCkPsWofv34PwV2AADIh4AOAEBnxHMologOhWnq6suK8cNHq8e3tWp8qL6sZv+yir19J7oZTRY3af7rAABAmQR0AAA6IZ5D8UR0yFQ8e/zrP573y/sS1v/44yx2AAAYLgEdAICNiedAJKJD4uLK8sNHsfytOe3N1aOofmmlOgAADIOADgDARsRz4CsiOiQkri4/fPTH83x37uM71WUM6j5HAQBgBwR0AADWJp4DzxDRYaAE86QI6gAAsAMCOgAAaxHPgReI6DAAj7ZkPxbMk/clqF/Y8h0AAPojoAMAsDLxHFiSiA47EFeZT2Mwf20OsvUpvo/NrE4HAIDuCOgAAKxEPAdWJKLDFjR1dRxXmR97RhfpPq5MvxhNFhelDwYAAGxCQAcAYGniObAmER061tTV3qNgbmt2Hnu81Xsb1O+MDgAALE9ABwBgKeI5sCERHTrwaKX5e+PJkj5YmQ4AAMsT0AEAeJF4DnRERIc1NHV1GM80tz07m/iyzXt7ZvqlkQQAgKcJ6AAAfJd4DnRMRIclNHV1EKN5+2ffmNGx2zakx5h+Y3ABAOBPAjoAAM8Sz4GeiOjwjKauvkTzt8aILbmKIX1mwAEAQEAHAOAZ4jnQMxEdorja/CSGc89dduU+rko/syodAICSCegAAHxDPAe2RESnaE1dHcdwbrU5Q3MVQ/qFmQEAoDQCOgAAfyGeA1smolOUpq724krzE2ebk4D2rPSzuMX7nQkDAKAEAjoAAH8Qz4EdEdHJXtym/TSEcOw5S4Laz+l2Nfqp7d0BAMidgA4AwGfiObBjIjpZaurqMK44f2+GycSHuCL90oQCAJAjAR0AAPEcGAoRnWzEcH7qfHMydhVXpAvpAABkRUAHACiceA4MjIhO0oRzCiSkAwCQFQEdAKBg4jkwUCI6yRHOQUgHACAPAjoAQKHEc2DgRHSSIJzDN4R0AACSJqADABRIPAcSIaIzWMI5vEhIBwAgSQI6AEBhxHMgMSI6g9LU1UEIYSacw9LakD4dTRY3hgwAgBQI6AAABRHPgUSJ6OxcU1d7IYSzEMJ7swFr+RBCOBlNFneGDwCAIRPQAQAKIZ4Dibudz8YHJpFti+H8JP7xDIXN3McfopwJ6QAADNXfzAwAQP7EcyADpyaRbWvq6jiE0O588LNnKHTiVbyfrpu6mhpSAACGyAp0AIDMiedABj7OZ+NjE8m2NHX1Jq6Sdc459OsqbuvuiA4AAAZDQAcAyJh4DmSg3e73YD4b2+qX3sXt2tvdDn4y2rBV/2rvPdu6AwAwBAI6AECmxHMgE/+Yz8aXJpO+xe3aZ56bsDPtD6amo8niwhQAALBLAjoAQIbEcyAT/5rPxicmkz41dXUQw7nt2mEYrmJIvzEfAADswt+MOgBAXsRzIBO3cStt6E1TV+01di2ew6C09+N1vD8BAGDrrEAHAMiIeA5kxNbt9Kapqzdx1flrowyD9imuRr82TQAAbIsV6AAAmRDPgYz8SzynL3FV6+/iOSShvU9/txodAIBtsgIdACAD4jmQkXbr9jfz2fjOpNIlq84heVajAwCwFVagAwAkTjwHMjMVz+maVeeQBavRAQDYCivQAQASJp4DmWm3bj8xqXSlqauDuOr8rUGFrLSr0Y9Hk8WNaQUAoGtWoAMAJEo8BzLTbt1uVSGdaepqGkK4Fs8hS+1q9Ot4nwMAQKesQAcASJB4DmToH/PZ+NLEsqmmrvbiqvN3BhOK8DGeje74DwAAOiGgAwAkRjwHMvRxPhsfm1g21dRV+4y8CCHsG0woym3c0v3atAMAsClbuAMAJEQ8BzJ0364cNLFsqqmr9vz838VzKFJ73/8ePwcAAGAjVqADACRCPAcy9eN8Np6ZXNZly3bgK7Z0BwBgIwI6AEACxHMgU1fz2fjQ5LIuW7YDz7ClOwAAa7OFOwDAwInnQMZstcvamrqaxuejeA58rf1cuIyfEwAAsBIBHQBgwMRzIGO/zGdjKwNZS1NX7Zbtv3k+At/Rfj78Fj8vAABgabZwBwAYKPEcyFi7te6b+WzsfFpWEs87b5+Nr40csIJPIYRD56IDALAMK9ABAAZIPAcydyKes6p43vm1eA6sof3cuI6fIwAA8F0COgDAwIjnQOau5rPxhUlmFc47BzrgXHQAAJYioAMADIh4DhRAuGAlTV2dOO8c6MiXc9FPDCgAAM8R0AEABkI8Bwrwy3w2vjHRLKupq1kI4VcDBnTs1/j5AgAA3/gPQwIAsHviOVCA2xDCmYlmGU1d7YUQ2q3+3xowoCfvm7o6CCEcjyaLO4MMAMAXVqADAOyYeA4U4nQ+GwsUvCjG80vxHNiCt/Fc9D2DDQDAFz88PDwYDACAHRHPgUJczWfjQ5PNS5q68lwEduE+hHA4miyujT4AAFagAwDsiHgOFOTUZPMS8RzYoVdxJfobkwAAgIAOALAD4jlQkA/z2fjShPM9TV1NPReBHfsS0acmAgCgbAI6AMCWiedAYaw+57tirPrNcxEYgPZz6DcRHQCgbAI6AMAWiedAYX6Zz8Y3Jp3nPIrnAEMiogMAFExABwDYEvEcKMx9COHMpPMc8RwYOBEdAKBQAjoAwBaI50CBTuez8Z2J5ylNXZ2I50AC2ojuKBIAgML88PDwYM4BAHokngMFup3Pxgcmnqc0dTULIbw3OEBCPowmC6vRAQAKYQU6AECPxHOgUFbr8STxHEjU+/j5BQBAAaxABwDoiXgOFOrTfDZ+Y/L5mngOZMBKdACAAliBDgDQA/EcKNiJyedrTV2diedABqxEBwAogBXoAAAdE8+Bgl3NZ+NDFwCPNXXVrtb8zaAAGflxNFkI6QAAmbICHQCgQ+I5UDhnn/MX4jmQqd/i5xsAABkS0AEAOiKeA4VrV59flj4I/Ek8BzInogMAZEpABwDogHgOYPU5fxLPgUKI6AAAGXIGOgDAhsRzAGef86emrtpr4d+GBCjIP0aThV1YAAAyYQU6AMAGxHOAz6w+57Omrtrn4oXRAApzET//AADIgIAOALAm8RzgM2ef81mMR56LQInaz71LER0AIA8COgDAGsRzgD9YfU4bz/dCCDOLBWYKAAAgAElEQVTPRaBg7effLH4eAgCQMAEdAGBF4jnAH6w+50s8b6+D10YDKNzruBJdRAcASJiADgCwAvEc4C+sPqd1Jp4D/OF1/FwEACBRAjoAwJLEc4C/sPqcdvV5G4neGwmAv3jf1NXMkAAApElABwBYgngO8A2rzwvX1NU0hPBT6eMA8Iz38XMSAIDE/PDw8GDOAAC+QzwH+Ea7+vzQsJSrqat2/v9d+jgALOEfo8nCji0AAAmxAh0A4DvEc4An2Za2YE1dHYQQLkofB4AlXcTPTQAAEmEFOgDAM8RzgCfdzmdjIaBQTV3txWfj69LHAmAFn0IIh6PJ4s6gAQAMnxXoAABPEM8BnuXs87LNxHOAlb22ewsAQDoEdACAr4jnAM+6n8/GAkChmrpqfzzxrvRxAFjTu/g5CgDAwAnoAACPiOcA33VmeMrU1NVhCOHn0scBYEM/x89TAAAGTEAHAIjEc4DvuhfQy9TUVXvm/UXp4wDQkYv4uQoAwEAJ6AAA4jnAMi7ms/GdkSrShecjQGde+VESAMCwCegAQPHEc4ClOLe1QE1dtbsOvC59HAA69jp+vgIAMEA/PDw8mBcAoFjiOcBSruazsTNbC9PU1XEI4X9KHweAHv1zNFlYjQ4AMDBWoAMAxRLPAZZm9Xlh4vm8s9LHAaBnM+ehAwAMj4AOABRJPAdY2u18Nr40XMVx7jlA/5yHDgAwQAI6AFAc8RxgJc5oLUxTV6fOPQfYmtfxcxcAgIEQ0AGAoojnACu5t413WZq6as+6/7n0cQDYsp/j5y8AAAMgoAMAxRDPAVZ2MZ+N7wxbGZq62vODCYCdmcXPYQAAdkxABwCKIJ4DrMX27WVp53u/9EEA2JF9P2ICABgGAR0AyJ54DrCWq/lsfG3oytDU1XEI4X3p4wCwY+/i5zEAADskoAMAWRPPAdZmFVwhbN0OMCi2cgcA2DEBHQDIlngOsLb7+WwsqJZj5lkJMBiv/KgJAGC3BHQAIEviOcBGfHFfiLhV8LvSxwFgYGzlDgCwQwI6AJAd8RxgY2eGMH+2bgcYNFu5AwDsiIAOAGRFPAfY2Kf5bHxjGItg63aA4bKVOwDAjgjoAEA2xHOATlh9XoCmrg5t3Q4weO/i5zUAAFskoAMAWRDPATpxH0K4MJR5s3U7QFJs5Q4AsGUCOgCQPPEcoDMX89n4znBm7ySEsF/6IAAkov28PjVZAADbI6ADAEkTzwE6ZVVy5pq6ap+bP5c+DgCJ+Sl+fgMAsAUCOgCQLPEcoFO389n40pBmzxn3AGny+Q0AsCUCOgCQJPEcoHPOPs9cU1fTEMLb0scBIFFv4+c4AAA9E9ABgOSI5wC9sLItY01d7ZljgOSdxc9zAAB6JKADAEkRzwF68Wk+G98Y2qydenYCJO9V/DwHAKBHAjoAkAzxHKA3M0Obr6auDkIIP5U+DgCZ+Cl+rgMA0JP/MLAAQArEc4BeOf88b34gQU6unvh3uXzivzt84r9760ogE7NnrnEAADrww8PDg3EEAAZNPAfo1cf5bHxsiPPU1FUbWP5d+jiQjDaO34UQrh/9ZxhNFk8F8o3Ee6PVvmfuPfpPkZ1U/KOPewMAACvQAYCBE88Bemf1ed6sPmeI7uP73fWXP6PJ4mab/5yPwuM3ATJuj/3m0Z9D76IMUPv5bit3AIAeWIEOAAyWeA6wFf85n43vDHV+mrqahhB+K30cGIRPj4L55bZjeRdiVD8Mfwb11y4tBuDH0WThh1IAAB0T0AGAQRLPAbbC9u2ZaupqL8bK/dLHgp24j7tbtO9yF6PJIrsf6cR77DjG9GPvrOzIbfujjhzvMQCAXbKFOwAwOOI5wNbYvj1fJ+I5W3YbP1Nmo8niOvfBj8Fy9uWYhKau2vfXaYzp7j22ZT9+3p8acQCA7liBDgAMingOsFW2b89QXBl741nKFhQVzZclprNl7Y4PB1ahAwB0xwp0AGAwxHOArfoonmfrxLOUHt0/iuaXBvpb8ccE7X140tTV4aOY7r6kD6+sQgcA6JYV6ADAIIjnAFv343w2nhn2vFh9To8+hRDOcj3TvG+PzkxvQ+frvP9t2QGr0AEAOmQFOgCwc+I5wE44/zxPVp/TtY9tOLfafDOPz0x/tCr9fcr/TgyKVegAAB2yAh0A2CnxHGAnruaz8aGhz4vV53TsQxvjRpPFjYHtR1NXBzF4Cul05b/cswAAm/ubMQQAdkU8B9gZq8/zZPU5m2q3gf4lhPCfo8liKsT1qx3fdpzb8Y7jfp/zvy9bcWKYAQA2ZwU6ALAT4jnATv3XfDYWxjJi9Tkd+Fdcce4M5R2J93G7Iv2nIgeALjgLHQCgA1agAwBbJ54D7NQn8TxLVp+zrg9x2+cT0W232vFv56GdjzgvsKpXVqEDAGxOQAcAtko8B9i5S1OQl7hqVTBhVVchhL/bqn14Hm3t/vc4T7CKk/hcAABgTQI6ALA14jnAIMxMQ3asPmcVtyGEf44mi8PRZHFt5IarnZ92ntr5ivMGy7AKHQBgQ85ABwC2QjwHGIT7+WxsVVpmmrq683xlSc45T9SjnSZ+Ln0sWIqz0AEANmAFOgDQO/EcYDAuTEVemrqaer6yhE9xu3bnnCcqno9+Grd1/1T6ePCi9rlwbJgAANYjoAMAvRLPAQbF+ef5OS19AHjRL6PJ4o3t2vMQt3Vv369/KX0seJHnAwDAmgR0AKA34jnA4FiBnpGmrtrVhfuljwPP+rLqXETLkNXoLGE/PicAAFiRgA4A9EI8BxicT/PZ2NbNeTkpfQB41r+sOs/fo9Xo/yp9LHiW5wQAwBoEdACgc+I5wCBZfZ6Rpq7aZ+3b0seBb9yHEP7ZnnVuaMoR5/ufcf7hsbfxeQEAwAoEdACgU+I5wGAJ6HkRSPlau5V3u+rcvV6gOO9vbOnOEzwvAABW9MPDw4MxAwA6IZ4DDNb9fDbeMz15aOqqncv/V/o48BcfRpPF1JAQ/u8zYhZCeG8weOQ/R5OFY1wAAJZkBToA0AnxHGDQLk1PVoRSHvtRPOexeD38aFB4xGcEAMAKBHQAYGPiOcDgCeh5sR0vIZ53/ffRZDEzGnwtXhd/dy46kecGAMAKBHQAYCPiOUASBPRMNHV1GELYL30c+HzO9eFosrg2FDwnXh/ORae1H58fAAAsQUAHANYmngMk4XY+G4ts+bANL+I5SxtNFjft9SKiYxU6AMDyBHQAYC3iOUAyrD7PRFNXeyGE96WPQ+E+xHh+V/pAsLx4vRzG64dyvYvPEQAAXvAfBggAWJV4DpAUAT0fVp+X7cNosnANsJYY0adNXQU/xCla+xlyVvogAAC8xAp0AGAl4jlAcgT0fNh+t1ziOZ2I15GV6OXyHAEAWIKADgAsTTwHSE57/vmNaUtfU1ftM3i/9HEolHhOp0T0ou3H5wkAAN8hoAMASxHPAZJ0bdqyIaCWSTynFyJ60axCBwB4gYAOALxIPAdIlu3b8yGilkc8p1cierGOSx8AAICXCOgAwHeJ5wBJE9Az0NTVsedwccRztkJEL9Kr+FwBAOAZAjoA8CzxHCBp9/PZ2BbueRA6ynIlnrNN8Xq7MuhF8VwBAPgOAR0AeJJ4DpA88TwDTV3tCR1F+WS+2ZHjeP1Rhvfx+QIAwBMEdADgG+I5QBZs354H27eX4z6EcDiaLO5KHwi2L153hyGEW8NfDD/WAQB4hoAOAPyFeA6QDQE9DwJHGcRzdi5ef8fxeiR/ni8AAM8Q0AGAP4jnAFmxhXvi4va670ofh0JMR5OFe5adi9ehM/jL8M427gAATxPQAYDPxHOArHyaz8ZWsqbP6sAy/DKaLC5KHwSGI16Pv5iSInjOAAA8QUAHAMRzgPxYyZqHw9IHoAAfR5PFaemDwPDE6/KjqcmegA4A8AQBHQAKJ54DZElAz4OwkbdbW2UzcO31+ckkZc0PtQAAniCgA0DBxHOAbAnoiWvq6tjzOXvHo8nCUQsMVrw+24h+b5ay9So+bwAAeERAB4BCiecA+ZrPxpemN3mCRt7+ezRZ+KELgxevU8cM5M3zBgDgKwI6ABRIPAfImu1282Bb3Xy1556flT4IpCNer85Dz5fnDQDAVwR0ACiMeA6QPataE9fUVfus3i99HDJ179xzEmUr93ztx+cOAACRgA4ABRHPAYogoKfPasB8TZ17TooenYdOnjx3AAAeEdABoBDiOUAxBPT0OY82T+3W7RelDwLpitevrdzz5LkDAPCIgA4ABRDPAYoioCesqau9EMLb0schQ7ZuJxe2cs/T2/j8AQAoXhDQASB/4jlAUW7ns7HtodNmG9082bqdLNjKPWuePwAAkYAOABkTzwGKc2PKkydg5OfK1u3kJF7PVyY1O54/AACRgA4AmRLPAYp0adqTJ2Dkx2pdcuS6zo9z0AEAIgEdADIkngMUy/nnCWvq6iCE8Lr0ccjML6PJws4QZCde17+Y2azsx+cQAEDxBHQAyIx4DlA0oS5tVp/n5T6EcFb6IJC1s3idkw/PIQCgeEFAB4C8iOcAZZvPxlagp024yMvJaLK4K30QyFe8vk9McVY8hwCA4gUBHQDyIZ4DFO9T6QOQgTelD0BGbkeTxaz0QSB/8Tq/NdXZENABgOIFAR0A8iCeAxBCsNI1YU1d7Tn/PCtW5VIS13s+9uPzCACgaAI6ACROPAcgujQQSbPqLx9Xo8niovRBoBzxer8y5dnwPAIAiiegA0DCxHMAHrkxGEmzfXs+TksfAIrkus+HgA4AFE9AB4BEiecAfEVAT5tgkYd29bndIChOvO6tQs+DH3QBAMUT0AEgQeI5AE+4NihJe1v6AGRiVvoAULSz0gcgE55HAEDxfnh4eCh9DAAgKeI5AE+Zz8Y/GJg0NXXVPtt/L30cMnA7miwOSh8EytbUVbsbyn7p45CBv48mCz/MAwCKZQU6ACREPAfgGbbNTZvtcvPgDGhwH+TCsSIAQNEEdABIhHgOwHfcGZykCejpux9NFrZvp3jxPrgvfRwy4LkEABRNQAeABIjnALzANqtpEyrS5+xn+JP7IX2OowAAiiagA8DAiecALOHGICXtbekDkAGrz+FP7of0eS4BAEUT0AFgwMRzAJYkoCeqqSurz9P3cTRZuAchivfDR+ORNs8nAKBkAjoADJR4DsAKxLt0CRTps9oWvuW+SJ/nEwBQLAEdAAZIPAdgFfPZWEBPl3Nm03Y/miwuSh8E+Fq8L24NTNI8nwCAYgnoADAw4jkAK7o3YEk7LH0AEmeVLTzPj0vS5vkEABRLQAeAARHPAVjDtUFLmhV+aRPQ4Xnuj7R5PgEAxRLQAWAgxHMA1nRn4JK2X/oAJOx2NFn4AQs8I94ftnFPl+cTAFAsAR0ABkA8B2ADAl6imrqyPW7abE8NL7MKPWGeUwBAqQR0ANgx8RwAirVn6pMmDMLL/NAkbbZxBwCKJKADwA6J5wB0wAr0dL0pfQASZvt2WIJt3JMnoAMARRLQAWBHxHMAOuIM9HQJ6OmyqhaW535Jl+cUAFAkAR0AdkA8B6BDAnq6bOGeLkEQlud+SZfnFABQJAEdALZMPAegS/PZ2DbS6bKyL1GjyeKy9DGAZcX75d6AJelt6QMAAJRJQAeALRLPAYBHvA+k6WPpAwBr8KMTAACSIaADwJaI5wD04Nagpqmpq8PSxyBhQiCszn2TKM8rAKBEAjoAbIF4DkBPbgwsbJ0QCKtz3wAAkAwBHQB6Jp4DAE9w/nma7keTxXXpgwCriveNc9DTZAU6AFAcAR0AeiSeA9AzIS9de6UPQKLcc7A+9w8AAEkQ0AGgJ+I5AFtwZ5CTdVD6ACTKNtSwPvdPmjyvAIDiCOgA0APxHAB4gSCRJgEQ1uf+SZPnFQBQHAEdADomngOwRVagw3bZghrW5/4BACAJAjoAdEg8B2DLxIh0vS19ABJ0O5os/GgF1hTvn1vjlxzPKwCgOAI6AHREPAcAyNqN6YWNuY8AABg8AR0AOiCeAwBkz/nNsDn3UYKautorfQwAgLII6ACwIfEcAFhFU1eHBixJVs7C5txHaXpT+gAAAGUR0AFgA+I5ALs0n42t5IPtEf5gc+4jAAAGT0AHgDWJ5wAARbk23bAx9xEAAIMnoAPAGsRzAGADBwYvPaPJ4q70MYBNuY+SZQt3AKAoAjoArEg8BwA2JKCn56r0AYAOuZ/Ss1f6AAAAZRHQAWAF4jkAAAAAAORLQAeAJYnnAAzMJxMCW+PcZuiO+wkAgEET0AFgCeI5AAPkHFnYHvcbdMf9BADAoAnoAPAC8RwA6Jgz0AFIyRuzBQCUREAHgO8QzwGAHgjo6bHlNHTn0lgmZ6/0AQAAyiKgA8AzxHMAACJbTgMAABRCQAeAJ4jnAAAAAABQHgEdAL4ingMAAAAAQJkEdAB4RDwHAADolSMRAAAYNAEdACLxHACAp4wmi0sDA90YTRbXhhIAgCET0AFAPAcAAAAAgOIFAR0AxHMAAAAAAOD/COgAFE08BwAAAAAAvhDQASiWeA4AAAAAADwmoANQJPEcAAAAAAD4moAOQHHEcwAAVtHU1aEBg240dfXGUAIAMGQCOgBFEc8BAAB2as/wAwAwZAI6AMUQzwEAAAAAgO8R0AEogngOAAAAAAC8REAHIHviOQAAG7LlNAAAQCEEdACyJp4DAAN0Z1KS86b0AYAOHRrM5HhuAQBFEdAByJZ4DgAM1LWJASAhnlsAQFEEdACyJJ4DANAhW7hDd9xPAAAMmoAOQHbEcwAAOmYLd+iO+wkAgEET0AHIingOAAAAAACsS0AHIBviOQCQiBsTlZy3pQ8AdMj9lJ670gcAACiLgA5AFsRzAAp0YNKTJaAnqKkr5zbDhtxHyboufQAAgLII6AAkTzwHoFD7Jh62yrnNsDn3EQAAgyegA5A08RwAgC2x6wNszn0EAMDgCegAJEs8BwBSNJosLk1ckoQ/2Jz7KE22cAcAiiKgA5Ak8RwAgC07NOCwMfdRgkaTxV3pYwAAlEVAByA54jkAADtg5Sxszn0EAMDgCegAJEU8B4A/HU3PreRL11XpA5Cg/aau9kofBFhXvH/2DWByPpU+AABAeQR0AJIhngMAsGNvTACszf2TJtu3AwDFEdABSIJ4DgBk5saEJsmuD7A+90+aBHQAoDgCOgCDJ54DABkS0NMkAML6rEBP03XpAwAAlEdAB2DQxHMA+C4xL11W9KVJAIT1eWYBAJAEAR2AwRLPAYCMWdGXpldNXYnosKJ43/h7XZouSx8AAKA8AjoAgySeAwAwUFbRwurcNwAAJENAB2BwxHMAWNqBoUrTaLKwoi9dQiCszn2TKM8rAKBEAjoAgyKeA8BKBHTYPiEQVue+AQAgGQI6AIMhngMAhbky4Ulqz0EXA2FJ8X7xd7w0eU4BAEUS0AEYBPEcANZiBXra7kofgIQdlz4AsAL3S7o8pwCAIgnoAOyceA4Aa9s3dEm7Ln0AEiYIwvLcL+nynAIAiiSgA7BT4jkAULAbk5+s/aau3pQ+CPCSpq4O/NgraZ5TAECRBHQAdkY8B4DNxecpaRIm0uYcdHiZ1edp85wCAIokoAOwE+I5AHRmz1CmaTRZXJY+Bomblj4AsAT3ScI8pwCAUgnoAGydeA4AnRLQ03Zb+gAk7LVt3OF58f54bYiS5fkEABRLQAdgq8RzAOicgJc22+OmzepaeJ77I22eTwBAsQR0ALZGPAcA+IbtcdPmfGd4nvsjbZ5PAECxBHQAtkI8B4DeHBrapFnhl7b9pq5EQvhKvC/2jUvSPJ8AgGIJ6AD0TjwHAHjWtaFJnm2q4Vvui/R5PgEAxRLQAeiVeA4AvXMGesJGk4VAkb53TV0dlD4I8EW8H94ZkLR5PgEAJRPQAeiNeA4AW+E5m76r0gcgA1bbwp/cD+n7VPoAAABlE9AB6IV4DgDbE5+7pMs5s+k7KX0A4BH3Q/qsPgcAiiagA9A58RwAtm7PkCdNqEjfq6aurLqlePE+8PfA9HkuAQBFE9AB6JR4DgA7YQV62i5LH4BMnJY+AOA+yIbnEgBQNAEdgM6I5wCwM1agJ2w0WVjpl4f9pq4OSx8EyhWv/32XQPo8lwCA0gnoAHRCPAeAnRLt0ndV+gBkwupbSub6z4PnEQBQPAEdgI2J5wAAG7PaLw9vrUKnRPG6f2vys+B5BAAUT0AHYCPiOQAMgmiRPufN5sMqXErkus+H5xEAUDwBHYC1iecAMBxH0/MD05E0wSIfVqFTFKvPs+N5BAAUT0AHYC3iOQAMjoCesNFkcRdCuC19HDIyK30AKMqZ6c7GbXweAQAUTUAHYGXiOQAM0hvTkjyr/vKx39TVtPRBIH/xOn9tqrPhOQQAFC8I6ACsSjwHgMHaMzXJEy7yctrUlfuSbMXr29nnefEcAgCKFwR0AFYhngPAoDlzOX3CRV72QwgnpQ8CWTuJ1zn58BwCAIoXBHQAliWeA8DgOQM9caPJ4sY56Nn5uakr9ybZidf1z2Y2K7fxOQQAUDwBHYAXiecAkASrAPNwUfoAZGhW+gCQJdd1fqw+BwCIBHQAvks8B4B0HE3PbeOePgEjP2+bujoufRDIR7ye35rS7PgBFwBAJKAD8CzxHACSY6vo9AnoeZo1dbVX+iCQvngdW32eJ88fAIBIQAfgSeI5ACRJQE/caLK4CyFclT4OGWrfqU9LHwSycOrviFn6FJ8/AADFCwI6AE8RzwEgWbZwz4NVgHn6qakr9yjJitfvT2YwS7ZvBwB4REAH4C/EcwBI2hvTlwUhI18XtnInRfG69dmUL3MLAPCIgA7AH8RzAEjeq6PpuTiXuNFkcR1CuC19HDL1yvnRJGrm74nZuo3PHQAAIgEdgM/EcwDIhlXoebCNe77eNXU1LX0QSEe8Xt+Zsmx53gAAfEVAB0A8B4C8OGM5D7bTzdtZU1d+7MLgxev0zExlzfMGAOArAjpA4cRzAMiOKJeB0WTRBo370schY5+3cnceOkMWr09bt2cuPm8AAHhEQAcomHgOAFkS0PNhW928vbayl4E7i9cp+fpobgEAviWgAxRKPAeAbO0fTc+tas2DVYH5e9/U1Unpg8DwxOvyvanJnucMAMATBHSAAonnAJA9q9DzIGyU4demrg5LHwSGI16Pv5qSInjOAAA8QUAHKIx4DgBFEOMyMJos7myvW4yLpq788IWdi9ehqFqGj/E5AwDAVwR0gIKI5wBQDCEuH0JWGV7FiO74BXYmXn8zf18shucLAMAzBHSAQojnAFAUAT0fAkc59tv3dRGdXYjXXfv3xdcmoBieLwAAzxDQAQogngNAcfaPpucHpj19cXvdD6WPQ0FexxXAsG0z8bwotm8HAPgOAR0gc+I5ABTLKvR8WCVYlndNXYnobE283t4Z8aL4jAEA+A4BHSBj4jkAFO2w9AHIxWiyaAP6fenjUJj3IjrbEK+z9wa7KPfxuQIAwDMEdIBMiecAUDwr0PMidpRHRKdX4nmxPE8AAF4goANkSDwHAEIIbw1CVs5KH4BCiej0QjwvmucJAMALBHSAzIjnAMAXR9Nz27hnYjRZXIcQbksfh0KJ6HRKPC/abXyeAADwHQI6QEbEcwDgKwJ6XqwaLJeITifE8+J5jgAALEFAB8iEeA4APME56HkRUMsmorMR8RznnwMALEdAB8iAeA4APMMK9IyMJou7EMLH0sehcG1Ev27qaq/0gWB57fXSXjfiefE+jiaLm9IHAQBgGQI6QOLEcwDgO17FdwXyYQUyr9v3/6auDoofCV4Uf2xxGa8byub5AQCwJAEdIGHiOQCwBKvQMzKaLNrtd29LHwc+x9B2JbofyPCseH3ciOe0z434/AAAYAkCOkCixHMAYEkCen7OSh8APnsVV6JPDQdfi9eFvy/yhdXnAAArENABEnQ0PT/wZQgAsCQBPT9CCF+0fx/4rakrP6rgD/F6+M3fF3nEZwQAwAp+eHh4MF4ACTmanjvDDgBY1d/ns/G1UctHU1dtRH9f+jjwF1chhOPRZHFnWMoUzztvt+l+W/pY8BcfRpOFnSoAAFZgBTpAQsRzAGBNVqHnx2pCvtZG05umrtzvBYrzfiOe8wTPCwCAFQnoAGk5E88BgDUcG7S8jCaL67jiGB5rt+z+d1NXp0alHHG+/23Ldp5wFZ8XAACsQEAHSMTR9PzUNp0AwJqsSMyTs9B5zs9NXV03dfXGCOWrqauDdp7b+S59LHiW5wQAwBqcgQ6QgKPpebtq7H/MFQCwgX/OZ+MLA5iXpq7aLZv3Sx8HnnUfQjgdTRa2cM5MU1cn7dxadc533I4miwMDBACwOivQAQbuaHp+4FfjAEAHnIucJ1t18z1tXP21qatLq9Hz0M5jO5/tvIrnvMDzAQBgTQI6wPDNfDECAHRAQM/TRVxlDN/THuPwe3tWdlNXe0YqTfGs898dy8ES7uPzAQCANQjoAAN2ND0/8eUIANCR13FnGzIymizuQgi252ZZ7VnZ7dnoflCTkHa+4nENzjpnWWfx+QAAwBoEdICBil9w/2p+AIAOiWZ5OrMKnRW0Z+b/O27r7kc1A9bOT9yu/d9x3mAZ935YBQCwGQEdYLicew4AdO3YiObHKnTW1O509b9NXc1s6z4s7Xy089LOjx3JWMPM6nMAgM0I6AADdDQ9n/qiBADogRXo+fLjS9b1PoRw43z03YvhvD3n/CbOC6zDD6oAADb0w8PDgzEEGJCj6fle/MLklXkBAHrwz/lsfGFg8xNXrIpubOLL1s/OT96i+MOFk/jH3wPZxIfRZDE1ggAAm7ECHWB4fGkCAPTJKvR8nZY+AGys/XvIz3FF+pkz0vsVzzg/iz+g/tnfA+mA5wAAQAesQAcYkKPpefsF1bUvTgCAHt3OZ2NRLFNWodODD3FF+rXB7UZTV2/iD6fdq3TJ6nMAgI5YgQ4wLKfiOQDQs/2j6fkbg5yt025P6DsAACAASURBVLgNN3Sljby/N3V13dSVOLeBdvzacWzHUzynB1afAwB0xAp0gIGIq8//13wAAFvwy3w29kV7ppq6Oo3bQUMf2h9oXFiVvpxHq82P/ViaHv0ymiw81wEAOvIfBpL/z97d5LaVpIkajkzcCUd2L4CwegWpWoHVcwGpBgxwmPQKSncFKe/AXkFJQwICWgY8L3kFZa3gSuAGpBGHvjiukFtp64ci45wTP88DEFlAoVB0hEwq+fKLALJxaCsAgIEcmFSr2vv4u6VYRx9exOnpP1aL6VX8eTubzJaXVvvf4t3xB/Hv4ascnhNVu4l/DwEASMQEOkAG9uenL0MIlz7kBAAG9J+fjt8IXpUyhc4ILuJk+lmLk+lx0nwvhNAdc/9bBk+Jdpg+BwBIzAQ6QB7m4jkAMLADE2tVM4XO0H6Ljz/jZPp5DOrnk9nyurbdWC2mL2MwP4j/NGnOGEyfAwD0wAQ6QAb256eXPnABAAZ28en4za5Fr9dqMe2+pPmP1teBLFzEoH5ealC/E8xvH6bMycHbyWx5bCcAANIS0AFGtj8/7T58+ad9AABG4Bj3yq0WU1/UJEfdhPqX+Oii+peconqM5bdHsu/Gh79H5OZqMlvu2BUAgPQc4Q4wvrk9AABG4hj3+s19WZMMvYqP32/v6l8tpjcxqF/++JjMlsm/6LNaTLvweN9j19UHFMJnCQAAPTGBDjCy/fnptQ9oAICROMa9AavFtJvwfd36OlCF7ij4u5Pq1zG6P6R7fXt557/bMUlOJT5PZss9mwkA0A8BHWBE+/PTburrf+wBADAix7hXLk7a/r/W1wGgIn+bzJaPfXkEAIAt/GrxAEZ1YPkBgJH5faRy8fjrD62vA0AlPojnAAD9EtABxuUDawBgbO5QbcNRCOGm9UUAKNxNfD0HAKBHAjrASPbnp7vuPgcAMvDb/vx0x0bUbTJbdndFH7a+DgCFO4qv5wAA9EhABxiP6XMAIBem0BswmS2PQwifW18HgEJdTGbL9zYPAKB/AjrAePasPQCQCQG9HabQAcrkvRoAYCACOsB4Xlt7ACATr+L1MlRuMlt+CSF8sM8ARfkQX78BABiAgA4wAh9QAwAZMpncjqMQwlXriwBQiKv4ug0AwEAEdIBxCOgAQG4O7EgbJrPltS9MABTjML5uAwAwEAEdYBwCOgCQmxf781MRvRGT2fIshPCx9XUAyNzH+HoNAMCABHSAcQjoAECO5nalKd1+37S+CACZuvG+DAAwDgEdYBw71h0AyNDv+/NTv6c0Ih4JLM4A5MnR7QAAIxHQAcbxyroDAJlyjHtDHOUOkKXPk9ny2NYAAIxDQAcYmKkuACBzhzaoOY5yB8jHjS+zAQCMS0AHGJ6ADgDk7NX+/HTPDrXDUe4AWZk7uh0AYFwCOgAAAD8SUxvjKHeALHyMr8cAAIxIQAcY3q41BwAy98f+/PSlTWqOo9wBxnPjC2wAAHkQ0AGG58NoAKAEPsRvTDwy2L27AOM4cHQ7AEAeBHQAAADuc2hV2jOZLc9DCB9aXweAgX2Ir78AAGRAQAcAAOA+r/bnp3tWpj2T2bL78sRF6+sAMJCL+LoLAEAmBHQAAAAe4hj3dh24Dx2gdzeuzgAAyI+ADgAAwEP+2J+f7lid9kxmy0vH+AP07jC+3gIAkBEBHQAAgMeYQm/UZLY8DiGctL4OAD05ia+zAABkRkAHAADgMaaQ2+Y+dID0Lry/AgDkS0AHAADgMS/256em0Bs1mS2v3YcOkNS3e8/j6ysAABkS0AGG534zAKA0puQaFu/n9SUKgDTm7j0HAMibgA4wPP+iDACU5rf9+emeXWvXZLY8CyG8a30dALb0Lr6eAgCQMQEdAACAdZhAbtxktjwKIXxsfR0ANvQxvo4CAJA5AR1geF+sOQBQoD/256c7Nq553RcpLlpfBIBnuvBFNACAcgjoAAP7dPzm2poDAIUyOde4yWx5HSPQTetrAbCmm3jvuc8CAAAKIaADjMPUDgBQooP9+elLO9e2yWzZnah00Po6AKxpHl83AQAohIAOMI5L6w4AFOhFCOHQxjGZLc9DCG+bXwiAx72dzJZn1ggAoCwCOsA4fPscACiVgM43k9nyOIRwYjUA7nUSXycBACiMgA4wDgEdACjVi/356dzuEf4d0bufhY8WA+AvPsbXRwAACiSgA4xDQAcASnZk97iji0QXFgTgm4v4uggAQKEEdIARfDp+092BfmXtAYBCvTKFzq3JbHkdQtjz+y3At9fBvfi6CABAoQR0gPGcW3sAoGCm0PkuxqKDEMKNVQEa1b3+HYjnAADlE9ABxiOgAwAle7k/P92xg9yazJZf4iS6iA605iZOnruuDQCgAgI6wHgEdACgVN9CQbyWBr6L8cjx/kBrDsVzAIB6COgAI4kfOF9YfwCgMLfxXCjgXpPZ8iyE8NbqAI14O5ktj202AEA9BHSAcZlCBwBKIp6zlhiTRHSgduI5AECFBHSAcfkXbQCgFOI5zyKiA5UTzwEAKiWgA4wofgB9ZQ8AgMyJ52wkxqUPVg+ozIl4DgBQLwEdYHz+pRsAyJl4zlYms+VhF5usIlCJLp7PbSYAQL0EdIDxCegAQK7Ec5KIsUlEB0onngMANEBABxjZp+M3lyGEj/YBAMiMeE5SIjpQOPEcAKARAjpAHkyhAwA5Ec/phYgOFEo8BwBoyC9fv3613wAZ2J+fdpPor+wFADAy8ZzerRbT7gukf1hpoADiOQBAY0ygA+TjyF4AACMTzxlEjFHvrDaQuXfiOQBAe0ygA2TEFDoAMCLxnMGtFtMuTP3DygMZejuZLV23BgDQIBPoAHkxhQ4AjEE8ZxQxTr21+kBmxHMAgIaZQAfIjCl0AGBg4jmjM4kOZEQ8BwBonAl0gPwc2hMAYCDiOVmIsepv8WcSYAzd689/iecAAJhAB8jQ/vz0PITw2t4AAD0Sz8nOajHdDSF0vwu/sDvAgL69J05mS++JAACYQAfIlCl0AKBP4jlZivGqi+gXdggYyIV4DgDAXQI6QIbih9nv7A0A0APxnKxNZsvL7mdURAcGIJ4DAPATAR0gX+9DCFf2BwBISDynCJPZ8noyW3aT6Cd2DOjJSYzn1xYYAIC73IEOkLH9+Wk3efNPewQAJCCeU6TVYnoUQvjT7gEJvZvMlkcWFACA+5hAB8jYp+M3545yBwASEM8pVoxcb+PPMcC23ornAAA8xgQ6QAH256fdh92/2SsAYAPiOVVYLabdke7dF0xf2FFgAzfuOwcAYB0m0AHKsGfiBgDYgHhONWL02gkhXNhV4Jm6140d8RwAgHWYQAcoxP78tJu4+Zf9AgDWJJ5TrdViehxC+MMOA2s4mcyWcwsFAMC6TKADFCJ++P3WfgEAaxDPqVqMYX43Bp7yVjwHAOC5TKADFGZ/fvo+hPB3+wYAPEA8pxnxXvSzEMIruw7ccRVCOHBkOwAAmxDQAQq0Pz91ZCUAcB/xnOasFtOXMaK/tvtACOFzjOfXFgMAgE0I6ACFEtEBgB+I5zRttZgehRD+bH0doHHvJrPlUeuLAADAdgR0gIKJ6ABAJJ7DvyP6Xgjh2JHu0JybOHV+busBANjWr1YQoFyfjt/MQwgnthAAmiaeQxTjWXcv+kdrAs3o/r7viOcAAKRiAh2gAibRAaBZ4jk8YLWYHoYQuqOcX1gjqFL3Hng0mS3f214AAFIS0AEqIaIDQHPEc3jCajHdjUe6/2atoCoXIYT5ZLb0HggAQHICOkBFRHQAaIZ4Ds+wWky7SfQ/rRlU4d1ktjyylQAA9EVAB6iMiA4A1RPPYQOm0aF4VyGEA1PnAAD07VcrDFCXT8dv5iGEE9sKAFUSz2FDMbrthRA+WEMoTvf3dlc8BwBgCCbQASplEh0AqiOeQyKm0aEY7joHAGBwAjpAxUR0AKiGeA49cDc6ZM1d5wAAjEJAB6iciA4AxRPPoUerxXQnTqO/ts6Qhc8hhENT5wAAjEVAB2iAiA4AxRLPYSCrxXQeQngfQnhhzWEUNzGcH1t+AADG9KvVB6jfp+M33YeBJ7YaAIoinsOAYrTb8XszjKL7e7cjngMAkAMT6AANMYkOAMUQz2FEq8V0L4Rw5Fh36F13XPvRZLY8t9QAAORCQAdojIgOANkTzyETjnWH3jiuHQCAbDnCHaAxjnMHgKyJ55CRO8e6v7MvkMw7x7UDAJAzE+gAjTKJDgDZEc8hY6vFdCce6+53aNjMSTyu/dL6AQCQMwEdoGEiOgBkQzyHQqwW0914rLv70WE97jkHAKAoAjpA40R0ABideA4FWi2me3EiXUiH+wnnAAAUSUAHQEQHgPGI51C41WJ6ECfSX9lL+OYqhHA4mS3PLAcAACUS0AH4RkQHgMGJ51CR1WI6jxPpQjqtuooT58d+AgAAKJmADsB3IjoADEY8h0oJ6TRIOAcAoCoCOgB/IaIDQO/Ec2iAO9JpgDvOAQCokoAOwE9EdADojXgOjRHSqZBwDgBA1QR0AO4logNAcuI5NGy1mO7EkO53bEp1EsP5pR0EAKBmAjoADxLRASAZ8Rz4ZrWYvgwhHIYQ5u5JpwDd+9f77jGZLa9tGAAALRDQAXiUiA4AWxPPgXutFtN5DOmOdyc33THtx5PZ8tjOAADQGgEdgCeJ6ACwMfEceNJqMd2NU+kHIYQXVoyRdO9ZZ3Ha3PsWAADNEtABWIuIDgDPJp4DzxKPdz+IMf03q8dALuIx7WeOaQcAAAEdgGcQ0QFgbeI5sJXVYrpz5650U+mkdnVn2vzS6gIAwP8S0AF4FhEdAJ4kngNJrRbTgziZ7oh3tnUSJ83PrCQAANxPQAfg2UR0AHiQeA705s4R793jdyvNmj7GaXNHtAMAwBoEdAA2IqIDwE/Ec2AwYjpPEM0BAGBDAjoAGxPRAeA78RwYzZ2YvueY92bdxGB+LpoDAMB2BHQAtiKiA4B4DuQl3pl+G9Nf2Z5qXd1Gc3eaAwBAOgI6AFsT0QFomHgOZG21mO7cmU7fM51etJs4YX47ZX7Z+oIAAEAfBHQAkhDRAWiQeA4UZ7WY7t2J6a/tYPY+30bzyWx53vpiAADAEAR0AJIR0QFoiHgOVOGHoL5rQn1U3XvLF8EcAADGJaADkJSIDkADxHOgWqvFdDeG9Nug/pvd7s3FnWD+ZTJbel8BAIAMCOgAJCeiA1Ax8RxoTpxSvw3rO45+30h3FPtlDOZfTJcDAEC+BHQAeiGiA1Ah8RwgipPqO3fC+kth/ZsulF/fhvIumpssBwCAsgjoAPRGRAegIuI5wBpWi+nLO5PqPz5eVbCGV3GS/MdHN1V+ncHzAwAAtiSgA9ArER2ACojnAIncCezhzuR6iHeu3xo6tt9G8Vu3x6vfTpIHgRwAANohoAPQOxEdgIKJ5wAZiEfGv0zwTK4dqQ4AADxGQAdgECI6AAUSzwEAAAAa86sNB2AIn47fzEMIJxYbgEKI5wAAAAANEtABGIyIDkAhxHMAAACARgnoAAxKRAcgc+I5AAAAQMMEdAAGJ6IDkCnxHAAAAKBxAjoAoxDRAciMeA4AAACAgA7AeER0ADIhngMAAADwjYAOwKhEdABGJp4DAAAA8J2ADsDoRHQARiKeAwAAAPAXAjoAWRDRARiYeA4AAADATwR0ALIhogMwEPEcAAAAgHsJ6ABkRUQHoGfiOQAAAAAPEtAByI6IDkBPxHMAAAAAHiWgA5AlER2AxMRzAAAAAJ4koAOQLREdgETEcwAAAADWIqADkDURHYAtiecAAAAArE1AByB7IjoAGxLPAQAAAHgWAR2AIojoADyTeA4AAADAswnoABRDRAdgTeI5AAAAABsR0AEoiogOwBPEcwAAAAA2JqADUBwRHYAHiOcAAAAAbEVAB6BIIjoAPxDPAQAAANiagA5AsUR0ACLxHAAAAIAkBHQAiiaiAzRPPAcAAAAgGQEdgOKJ6ADNEs8BAAAASEpAB6AKIjpAc8RzAAAAAJIT0AGohogO0AzxHAAAAIBeCOgAVEVEB6ieeA4AAABAbwR0AKojogNUSzwHAAAAoFcCOgBVEtEBqiOeAwAAANA7AR2AaonoANUQzwEAAAAYhIAOQNVEdIDiiecAAAAADEZAB6B6IjpAscRzAAAAAAYloAPQBBEdoDjiOQAAAACDE9ABaIaIDlAM8RwAAACAUQjoADRFRAfInngOAAAAwGgEdACaI6IDZEs8BwAAAGBUAjoATRLRAbIjngMAAAAwOgEdgGaJ6ADZEM8BAAAAyIKADkDTRHSA0YnnAAAAAGRDQAegeSI6wGjEcwAAAACyIqADgIgOMAbxHAAAAIDsCOgAEInoAIMRzwEAAADIkoAOAHeI6AC9E88BAAAAyJaADgA/ENEBeiOeAwAAAJA1AR0A7iGiAyQnngMAAACQPQEdAB4gogMkI54DAAAAUAQBHQAeIaIDbE08BwAAAKAYAjoAPEFEB9iYeA4AAABAUQR0AFiDiA7wbOI5AAAAAMUR0AFgTSI6wNrEcwAAAACKJKADwDOI6ABPEs8BAAAAKJaADgDPJKIDPEg8BwAAAKBoAjoAbEBEB/iJeA4AAABA8QR0ANiQiA7wnXgOAAAAQBUEdADYgogOIJ4DAAAAUA8BHQC2JKIDDRPPAQAAAKiKgA4ACYjoQIPEcwAAAACqI6ADQCIiOtAQ8RwAAACAKgnoAJCQiA40QDwHAAAAoFoCOgAkJqIDFRPPAQAAAKiagA4APRDRgQqJ5wAAAABUT0AHgJ6I6EBFxHMAAAAAmiCgA0CPRHSgAuI5AAAAAM0Q0AGgZyI6UDDxHAAAAICmCOgAMAARHSiQeA4AAABAcwR0ABiIiA4URDwHAAAAoEkCOgAMSEQHCiCeAwAAANAsAR0ABiaiAxkTzwEAAABomoAOACMQ0YEMiecAAAAANE9AB4CRiOhARsRzAAAAAJoXBHQAGJeIDmRAPAcAAACASEAHgJGJ6MCIxHMAAAAAuENAB4AMiOjACMRzAAAAAPiBgA4AmRDRgQGJ5wAAAABwDwEdADIiogMDEM8BAAAA4AECOgBkRkQHeiSeAwAAAMAjBHQAyJCIDvRAPAcAAACAJwjoAJApER1ISDwHAAAAgDUI6ACQMREdSEA8BwAAAIA1CegAkDkRHdiCeA4AAAAAzyCgA0ABRHRgA+I5AAAAADyTgA4AhRDRgWcQzwEAAABgAwI6ABRERAfWIJ4DAAAAwIYEdAAojIgOPEI8BwAAAIAtCOgAUCARHbiHeA4AAAAAWxLQAaBQIjpwh3gOAAAAAAn88vXrV+sINGm1mO6t8+eezJbnfkLI2f789DiE8IdNgmaJ5wAAAACQiIAOVC1G8t0Qws6df77a8M98FUK4DCF8ufPPL5PZ8tpPEWMT0aFZ4jkAAAAAJCSgA9VYLaYvu4hw5/HbQH+2ixjTu0n1M0GdsYjo0BzxHAAAAAASE9CBoq0W026i/CCEMB8wmD+lC+rHMaZf+gljSCI6NEM8BwAAAIAeCOhAceKk+TyzaP6Q25h+bDKdoYjoUD3xHAAAAAB6IqADxVgtpt0d5ocFh8GTGNLPM3guVE5Eh2qJ5wAAAADQIwEdyN5qMe3uMz8KIbyuZLc+hxDeT2bLswyeCxUT0aE64jkAAAAA9ExAB7JVYTj/UXe8+6GJdPokokM1xHMAAAAAGICADmRntZjuxHvDaw3nP/ocQ7ooQi9EdCieeA4AAAAAAxHQgWysFtOX8Y7zPxvdlQ/dxP1ktrzO4LlQGREdiiWeAwAAAMCABHQgC/G49i7wvWp8R7pQMnc/On0Q0aE44jkAAAAADExAB0YVp867e87/bif+4iQe624anaREdCiGeA4AAAAAIxDQgdGsFtPdOHX+m12411UI4cDd6KQmokP2xHMAAAAAGMmvFh4Yw2oxnYcQzsXzR3XH2f8rrhUk8+n4zTyecgDkRzwHAAAAgBGZQAcGt1pM3zuy/dlOJrOlkE5SJtEhO+I5AAAAAIxMQAcGE+87fy/YbexzPNLdvegkI6JDNsRzAAAAAMiAgA4MIsZzR7Zv76ILLCI6KYnoMDrxHAAAAAAy4Q50oHfieVLdGp7HNYUk3IkOoxLPAQAAACAjAjrQK/G8FyI6yYnoMArxHAAAAAAyI6ADvRHPeyWik5yIDoMSzwEAAAAgQwI60AvxfBAiOsmJ6DAI8RwAAAAAMiWgA8mJ54MS0UlORIdeiecAAAAAkDEBHUhKPB+FiE5yIjr0QjwHAAAAgMwJ6EAy4vmoRHSSE9EhKfEcAAAAAAogoANJiOdZENFJTkSHJMRzAAAAACiEgA5sTTzPiohOciI6bEU8BwAAAICCCOjAVsTzLInoJCeiw0bEcwAAAAAojIAObEw8z5qITnIiOjyLeA4AAAAABRLQgY2I50UQ0UlORIe1iOcAAAAAUCgBHXg28bwoIjrJiejwKPEcAAAAAAomoAPPIp4XSUQnOREd7iWeAwAAAEDhBHRgbeJ50UR0khPR4S/EcwAAAACogIAOrEU8r4KITnIiOnwjngMAAABAJQR04EnieVVEdJIT0WmceA4AAAAAFRHQgUeJ51US0UlORKdR4jkAAAAAVEZABx4knldNRCc5EZ3GiOcAAAAAUCEBHbiXeN4EEZ3kRHQaIZ4DAAAAQKUEdOAn4nlTRHSSE9GpnHgOAAAAABUT0IG/EM+bJKKTnIhOpcRzAAAAAKicgA58J543TUQnORGdyojnAAAAANAAAR34RjxHRKcPIjqVEM8BAAAAoBECOiCec5eITnIiOoUTzwEAAACgIQI6NE485x4iOsmJ6BRKPAcAAACAxgjo0DDxnEeI6CQnolMY8RwAAAAAGiSgQ6PEc9YgopOciE4hxHMAAAAAaJSADg0Sz3kGEZ3kRHQyJ54DAAAAQMMEdGiMeM4GRHSSE9HJlHgOAAAAAI0T0KEh4jlbENFJTkQnM+I5AAAAACCgQyvEcxIQ0UlORCcT4jkAAAAA8I2ADg0Qz0lIRCc5EZ2RiecAAAAAwHcCOlROPKcHIjrJieiMRDwHAAAAAP5CQIeKief0SEQnORGdgYnnAAAAAMBPBHSolHjOAER0khPRGYh4DgAAAADcS0CHConnDEhEJzkRnZ6J5wAAAADAgwR0qIx4zghEdJIT0emJeA4AAAAAPEpAh4qI54xIRCc5EZ3ExHMAAAAA4EkCOlRCPCcDIjrJiegkIp4DAAAAAGsR0KEC4jkZEdFJTkRnS+I5AAAAALA2AR0KJ56TIRGd5ER0NiSeAwAAAADPIqBDwcRzMiaik5yIzjOJ5wAAAADAswnoUCjxnAKI6CQnorMm8RwAAAAA2IiADgUSzymIiE5yIjpPEM8BAAAAgI0J6FAY8ZwCiegkJ6LzAPEcAAAAANiKgA4FEc8pmIhOciI6PxDPAQAAAICtCehQCPGcCojoJCeiE4nnAAAAAEASAjoUQDynIiI6yYnozRPPAQAAAIBkBHTInHhOhUR0khPRmyWeAwAAAABJCeiQMfGcionoJCeiN0c8BwAAAACSE9AhU+I5DRDRSU5Eb4Z4DgAAAAD0QkCHDInnNEREJzkRvXriOQAAAADQGwEdMiOe0yARneRE9GqJ5wAAAABArwR0yIh4TsNEdJIT0asjngMAAAAAvRPQIRPiOYjopCeiV0M8BwAAAAAGIaBDBsRz+E5EJzkRvXjiOQAAAAAwGAEdRiaew09EdJIT0YslngMAAAAAgxLQYUTiOTxIRCc5Eb044jkAAAAAMDgBHUYinsOTRHSSE9GLIZ4DAAAAAKMQ0GEE4jmsTUQnORE9e+I5AAAAADAaAR0GJp7Ds4noJCeiZ0s8BwAAAABGJaDDgMRz2JiITnIienbEcwAAAABgdAI6DEQ8h62J6CQnomdDPAcAAAAAsiCgwwDEc0hGRCc5EX104jkAAAAAkA0BHXomnkNyIjrJieijEc8BAAAAgKwI6NAj8Rx6I6KTnIg+OPEcAAAAAMiOgA49Ec+hdyI6yYnogxHPAQAAAIAsCejQA/EcBiOik5yI3ruLEMKueA4AAAAA5EhAh8TEcxiciE5yMaJ/sLLJXcTJ88vK/lwAAAAAQCUEdEhIPIfRiOgk9+n4zWEI4a2VTeYkxvPrSv48AAAAAECFfvn69at9hQTEc8jC58lsuWcrSGl/frobX99fWNiNvft0/Oao0OcOAAAAADTEBDokIJ5DNl6vFtNj20FK8a7unXj8OM9zE0L4b/EcAAAAACiFCXTYkngOWXo7mS2FdJLbn592IfhPK7uWzyGEufvOAQAAAICSCOiwBfEcsva3yWz5xRaR2v78tLsmoPuCxiuLe69u6vzo0/Gb9xk+NwAAAACARwnosCHxHLJ3FULYncyW17aK1Pbnp917wKFp9J+YOgcAAAAAiiagwwbEcyjGyWS2nNsu+rI/P90NIXST1q8bX+Ru6vzw0/EbVycAAAAAAEUT0OGZxHMozn9PZssz20af9uen3Rc1jho81v0mfoHg/afjN057AAAAAACKJ6DDM4jnUKQu8O04yp0hNBbST+Jd545rBwAAAACqIaDDmsRzKNqHyWx5aAsZSsUhvftCynGcOBfOAQAAAIDqCOiwBvEcqvC3yWz5xVYypP356UEIoYvpvxe+8FfxqPZjR7UDAAAAADUT0OEJ4jlU4/NkttyznYxhf366E0P6vKCp9G7a/CxG8/MMng8AAAAAQO8EdHiEeA7V+a/JbCkEMqr9+eluDOl7Gb6/3Ebzs0/Hb84yeD4AAAAAAIMS0OEB4jlU6WIyW+7aWnIRJ9P37jzGmE7/HN/vumjumgMAAAAAoGkCOtxDPIeqmUInWzGo79557CR8L+ruMb8MIXy5fQjmAAAAAAB/JaDDD8RzqJ670CnO/vz0ZYzqIUb1nSf+DNcxkncuPx2/ubTrAAAAAABPayagrxbT2w+bDfv6+QAAGl1JREFUb6PJ3Xjy8p5Y+vnOf7784fFlMlteD/C0GZh4Ds0whQ4AAAAAAPykyoAeI+henNS6/eeLxP83V3Gyqwsw55PZ0hGohRPPoSknk9lybssBAAAAAIC7qgnoccL8ID5ej/AUbkIIZzHAnplQL4t4Dk36D6/VAAAAAADAXUUH9Bg9u2B+mGH4PIkh/SyD58IjxHNo1v+dzJbvbT8AAAAAAHCryIAep82PYjxPfTR7at1R712gOTbpmB/xHJp2MZktd1tfBAAAAAAA4H8VFdBXi+lenDb/PYOn81w3MaS/F9LzIJ4DIYT/nMyWlxYCAAAAAAAIpQT0OHF+PNLd5qkJ6RkQz4HIMe4AAAAAAMB3WQf0GDm7o9r/nsHTSa0L6YeT2fK4rj9W/sRz4A7HuAMAAAAAAN9lG9BXi+lBnDrP/Y7zbX2OIf1L2X+MMojnwD3+w4kgAAAAAABA59cMnsNfdIFztZiehRD+p4F4HuKx9P9aLaZHGTyXqonnwAMOLAwAAAAAABByC+irxXQvhHAZQvg9g6cztD9Xi+l5jLwkJp4Dj9izOAAAAAAAQMgpoMcJ7H82MnX+kG4a/TJ+kYBExHPgCe5ABwAAAAAAvhn9DvQYN48bnTp/zNvJbHmc79Mrg3gOrMk96AAAAAAAwLgT6Hfipnj+s3+sFlMBfQviOfAMptABAAAAAIDxAvpqMd0VN5/0h4i+GfEceCYBHQAAAAAAGCegi+fPIqI/k3gObGDHogEAAAAAAIMH9Dvx/EXzq78+EX1N4jmwIRPoAAAAAADAsAE9xs0z8XwjIvoTxHNgCybQAQAAAACA4QL6nbj5yrJvTER/gHgObMl7EwAAAAAAMOgE+rG4mYSI/gPxHAAAAAAAAEhhkIC+WkyPQgi/27FkRPRIPAdSWS2mexYTAAAAAADa1ntAXy2mByGEP1tf6B40H9HFcwAAAAAAACClXgN6DJwmpfvTbEQXzwEAAAAAAIDU+p5APwshvLBrvWouoovnAAAAAAAAQB96C+irxfQwhPDarg2imYgungMAAAAAAAB96SWgx8h5ZNcGVX1EF88BAAAAAACAPvU1gf7e0e2jqDaii+cAAAAAAABA35IH9NViuteFXDs3muoiungOAAAAAAAADKGPCXRHt4+vmogungMAAAAAAABDSRrQ4/T5a7uXheIjungOAAAAAAAADCn1BLrp87wUG9HFc2Bok9ny3KIDAAAAAEDbkgV00+fZKi6ii+cAAAAAAADAGFJOoM/tYLaKiejiOTCSKwsPAAAAAAAkCegxev7R/GrmLfuILp4DI7q0+AAAAAAAQKoJdNPnZcg2oovnwMi+2AAAAAAAACBVQD9sfiXLkV1EF8+BDJhABwAAAAAAtg/oq8V0N4TwylIWJZuILp4DmTCBDgAAAAAAJJlAd3x7mUaP6OI5kIvJbHluMwAAAAAAgBQBfa/5VSzXaBFdPAcycmEzAAAAAACAsG1AXy2mOwJo8QaP6OI5kBnT5wAAAAAAwDfbTqCbPq/DYBFdPAcyJKADAAAAAADfCOjc6j2ii+dApgR0AAAAAADgm20D+q5lrEpvEV08BzJ1MZktr20OAAAAAAAQEgR0MbQ+ySO6eA5kbJDrKwAAAAAAgDJsHNBXi6nj2+uVLKKL50DmzmwQAAAAAABwa5sJ9B2rWLWtI7p4DmSuO7790iYBAAAAAAC3BHQes3FEF8+BAry3SQAAAAAAwF3bBPRdK9mEZ0d08RwohOPbAQAAAACAv9gmoL+0lM1YO6KL50AhTiaz5bXNAgAAAAAA7tomoNOWJyO6eA4UxPHtAAAAAADAT7YJ6K8tZ3MejOjiOVCQz5PZ8osNAwAAAAAAfmQCnef6KaKL50BhjmwYAAAAAABwHwGdTXyP6OI5UJhu+vzcpgEAAAAAAPf5P1aFDXURvftf7ornQEFMnwMAAAAAAA8S0NnGH1YPKIjpcwAAAAAA4FGOcAegFXM7DQAAAAAAPEZAB6AF7yaz5aWdBgAAAAAAHiOgA1C7qxDCe7sMAAAAAAA8ZZuA/tnqAlCA+WS2vLZRAAAAAADAU0ygA1CzD5PZ8twOAwAAAAAA69gmoLtLFoCcXYQQjuwQAAAAAACwLgEdgBrdOLodAAAAAAB4rm0C+herDUCmDiezpfcpAAAAAADgWUygA1Cb7t7zY7sKAAAAAAA81y9fv37deNFWi+nm/2MASO9kMlvOrSsAAAAAALCJbSbQOxdWHYBMdO9JhzYDAAAAAADY1LYB/dzKA5CBLp7vTWbLa5sBAAAAAABsSkAHoHTiOQAAAAAAkISADkDJxHMAAAAAACCZrQJ6DBbuQQdgDOI5AAAAAACQ1LYT6J1jWwLAwMRzAAAAAAAguRQB/cy2ADAg8RwAAAAAAOjF1gF9MlteOsYdgIGI5wAAAAAAQG9STKB33tsiAHomngMAAAAAAL1KFdC7Y9xvbBUAPRHPAQAAAACA3iUJ6DFouAsdgD6I5wAAAAAAwCBSTaB3jmwZAImJ5wAAAAAAwGCSBfTJbHkZQvho6wBIRDwHAAAAAAAGlXICvfPe9gGQgHgOAAAAAAAMLmlAn8yW5yGEE9sIwBbEcwAAAAAAYBSpJ9CDu9AB2IJ4DgAAAAAAjCZ5QI93ob+zpQA8k3gOAAAAAACMqo8J9BDvQr+ytQCsSTwHAAAAAABG10tAjwHk0PYCsAbxHAAAAAAAyEJfE+hdRD8LIXy0zQA8QjwHAAAAAACy0VtAj+aOcgfgAeI5AAAAAACQlV4DeowiB7YcgB+I5wAAAAAAQHb6nkDvIvqXEMJbWw9AJJ4DAAAAAABZ6j2gh39H9OMQwokfAYDmiecAAAAAAEC2fvn69etgz221mJ6HEF77cQBokngOAAAAAABkbZAJ9DsOYkABoC3iOQAAAAAAkL1BA3oMJ3siOkBTxHMAAAAAAKAIQ0+gi+gAbRHPAQAAAACAYgwe0IOIDtAK8RwAAAAAACjKKAE9iOgAtRPPAQAAAACA4owW0IOIDlAr8RwAAAAAACjSqAE9iOgAtRHPAQAAAACAYo0e0IOIDlAL8RwAAAAAAChaFgE9iOgApRPPAQAAAACA4mUT0IOIDlAq8RwAAAAAAKhCVgE9iOgApRHPAQAAAACAamQX0IOIDlAK8RwAAAAAAKhKlgE9iOgAuRPPAQAAAACA6mQb0IOIDpAr8RwAAAAAAKhS1gE9iOgAuRHPAQAAAACAamUf0IOIDpAL8RwAAAAAAKhaEQE9iOgAYxPPAQAAAACA6hUT0IOIDjAW8RwAAAAAAGhCUQE9iOgAQxPPAQAAAACAZhQX0IOIDjAU8RwAAAAAAGhKkQE9iOgAfRPPAQAAAACA5hQb0IOIDtAX8RwAAAAAAGhS0QE9iOgAqYnnAAAAAABAs4oP6EFEB0hFPAcAAAAAAJpWRUAPIjrAtsRzAAAAAACgedUE9CCiA2xKPAcAAAAAAJoXagvoQUQHeC7xHAAAAAAAIKouoAcRHWBd4jkAAAAAAMAdVQb0IKIDPEU8BwAAAAAA+EG1AT2I6AAPEc8BAAAAAADuUXVADyI6wI/EcwAAAAAAgAdUH9CDiA5wSzwHAAAAAAB4RBMBPYjoAOI5AAAAAADAE5oJ6EFEB9olngMAAAAAAKyhqYAeRHSgPeI5AAAAAADAmpoL6EFEB9ohngMAAAAAADxDkwE9iOhA/cRzAAAAAACAZ2o2oAcRHaiXeA4AAAAAALCBpgN6ENGB+ojnAAAAAAAAG2o+oAcRHaiHeA4AAADA/2/v3o3jWK4ADDeutxZxA9i6yABUBKQiEL01iRBuBuLNAIpAlLkemAGQAZgBVZsAYa25qgVGLD7w2Md0z+nu76tCwZ05bf57egCAIwjoAxEdqJx4DgAAAAAAcCQB/TsiOlAp8RwAAAAAAGAEAvpPRHSgMuI5AAAAAADASAT0R4joQCXEcwAAAAAAgBEJ6E8Q0YHgxHMAAAAAAICRCejPENGBoMRzAAAAAACADAT0F4joQDDiOQAAAAAAQCYC+g5EdCAI8RwAAAAAACAjAX1HIjowMfEcAAAAAAAgMwF9DyI6MBHxHAAAAAAAoAABfU8iOlCYeA4AAAAAAFCIgH4AER0oRDwHAAAAAAAoSEA/kIgOZCaeAwAAAAAAFCagH0FEBzIRzwEAAAAAACYgoB9JRAdGJp4DAAAAAABMREAfgYgOjEQ8BwAAAAAAmJCAPhIRHTiSeA4AAAAAADAxAX1EIjpwIPEcAAAAAAAgAAF9ZCI6sCfxHAAAAAAAIAgBPQMRHdiReA4AAAAAABCIgJ6JiA68QDwHAAAAAAAIRkDPSEQHniCeAwAAAAAABCSgZyaiAz8RzwEAAAAAAIIS0AsQ0YGBeA4AAAAAABCYgF6IiA7dE88BAAAAAACCE9ALEtGhW+I5AAAAAABABQT0wkR06I54DgAAAAAAUAkBfQIiOnRDPAcAAAAAAKiIgD4RER2aJ54DAAAAAABURkCfkIgOzRLPAQAAAAAAKiSgT0xEh+aI5wAAAAAAAJUS0AMQ0aEZ4jkAAAAAAEDFBPQgRHSonngOAAAAAABQOQE9EBEdqiWeAwAAAAAANEBAD0ZEh+qI5wAAAAAAAI0Q0AMS0aEa4jkAAAAAAEBDBPSgRHQITzwHAAAAAABojIAemIgOYYnnAAAAAAAADRLQgxPRIRzxHAAAAAAAoFECegVEdAhDPAcAAAAAAGiYgF4JER0mJ54DAAAAAAA0TkCviIgOkxHPAQAAAAAAOiCgV0ZEh+LEcwAAAAAAgE4I6BUS0aEY8RwAAAAAAKAjAnqlRHTITjwHAAAAAADojIBeMREdshHPAQAAAAAAOiSgV05Eh9GJ5wAAAAAAAJ0S0BsgosNoxHMAAAAAAICOCeiNENHhaOI5AAAAAABA5wT0hojocDDxHAAAAAAAAAG9NSI67E08BwAAAAAA4J6A3iARHXYmngMAAAAAAPCNgN4oER1eJJ4DAAAAAADwAwG9YSI6PEk8BwAAAAAA4BcCeuNEdPiFeA4AAAAAAMCjBPQOiOjwjXgOAAAAAADAkwT0TojoIJ4DAAAAAADwPAG9IyI6HRPPAQAAAAAAeJGA3hkRnQ6J5wAAAAAAAOxEQO+QiE5HxHMAAAAAAAB2JqB3SkSnA+I5AAAAAAAAexHQOyai0zDxHAAAAAAAgL0J6J0T0WmQeA4AAAAAAMBBBHREdFoingMAAAAAAHAwAZ17IjoNEM8BAAAAAAA4ioDONyI6FRPPAQAAAAAAOJqAzg9EdCokngMAAAAAADAKAZ1fiOhURDwHAAAAAABgNAI6jxLRqYB4DgAAAAAAwKgEdJ4kohOYeA4AAAAAAMDoBHSeJaITkHgOAAAAAABAFgI6LxLRCUQ8BwAAAAAAIBsBnZ2I6AQgngMAAAAAAJCVgM7ORHQmJJ4DAAAAAACQnYDOXkR0JiCeAwAAAAAAUISAzt5EdAoSzwEAAAAAAChGQOcgIjqF3IrnAAAAAAAAlCKgczARnQLer5fzjwYNAAAAAABACQI6RxHRKUBEBwAAAAAAoAgBnaOJ6BQgogMAAAAAAJCdgM4oRHQKENEBAAAAAADISkBnNCI6BYjoAAAAAAAAZCOgMyoRnQJEdAAAAAAAALIQ0BmdiE4BIjoAAAAAAACjE9DJQkSnABEdAAAAAACAUQnoZCOiU4CIDgAAAAAAwGgEdLIS0SlARAcAAAAAAGAUAjrZiegUIKIDAAAAAABwNAGdIkR0ChDRAQAAAAAAOIqATjEiOgWI6AAAAAAAABxMQKcoEZ0CRHQAAAAAAAAOIqBTnIhOASI6AAAAAAAAexPQmYSITgEiOgAAAAAAAHsR0JmMiE4BIjoAAAAAAAA7E9CZlIhOASI6AAAAAAAAOxHQmZyITgEiOgAAAAAAAC8S0AlBRKcAER0AAAAAAIBnCeiEIaJTgIgOAAAAAADAkwR0QhHRKUBEBwAAAAAA4FECOuGI6BQgogMAAAAAAPALAZ2QRHQKENEBAAAAAAD4gYBOWCI6BYjoAAAAAAAAfCOgE5qITgEiOgAAAAAAAPcEdMIT0SlARAcAAAAAAEBApw4iOgWI6AAAAAAAAJ0T0KmGiE4BIjoAAAAAAEDHBHSqIqJTgIgOAAAAAADQKQGd6ojoFCCiAwAAAAAAdEhAp0oiOgWI6AAAAAAAAJ0R0KmWiE4BIjoAAAAAAEBHBHSqJqJTgIgOAAAAAADQCQGd6onoFCCiAwAAAAAAdEBApwkiOgWI6AAAAAAAAI0T0GmGiE4BIjoAAAAAAEDDBHSaIqJTgIgOAAAAAADQKAGd5ojoFCCiAwAAAAAANEhAp0kiOgWI6AAAAAAAAI0R0GmWiE4B24h+YdAAAAAAAABtONlsNo6Spq2X89OU0nVK6dxJk8nfZ4vVteECAAAAAADUTUCnCyI6md2llM6GWw8AAAAAAAColCvc6YLr3MnsVUrpypABAAAAAADqJqDTDRGdzN6sl/MPhgwAAAAAAFAvV7jTHde5k9nfZovVrSEDAAAAAADUxwY63bGJTmaXBgwAAAAAAFAnAZ0uiehktL3K/cKAAQAAAAAA6uMKd7rmOncyuUspnQ0/1AAAAAAAAKASNtDpmk10MnmVUvrTcAEAAAAAAOpiAx1sopOHLXQAAAAAAIDK2EAHm+jkYQsdAAAAAACgMjbQ4Ts20RmZLXQAAAAAAICK2ECH79hEZ2TbLfQLQwUAAAAAAKiDgA4/EdEZmWvcAQAAAAAAKiGgwyNEdEb0x3o5f2egAAAAAAAA8Qno8AQRnREJ6AAAAAAAABU42Ww2zgmesV7OT1NK1ymlc3PiCL8PP8oAAAAAAAAgKBvo8AKb6IzEFjoAAAAAAEBwAjrsQERnBG8NEQAAAAAAIDYBHXYkonMkG+gAAAAAAADBCeiwBxGdI7xaL+evDRAAAAAAACAuAR32JKJzBNe4AwAAAAAABCagwwFEdA4koAMAAAAAAAQmoMOBRHQO4Ap3AAAAAACAwE42m43zgSOsl/PTlNJ1SuncHNnB78OPLwAAAAAAAAjGBjocySY6e7KFDgAAAAAAEJSADiMQ0dnDmWEBAAAAAADEJKDDSER0diSgAwAAAAAABCWgw4hEdHYgoAMAAAAAAAQloMPIRHReIKADAAAAAAAEJaBDBiI6AAAAAAAA1EdAh0xEdAAAAAAAAKiLgA4Zieg84o2hAAAAAAAAxCSgQ2YiOgAAAAAAANRBQIcCRHQAAAAAAACIT0CHQkR0AAAAAAAAiE1Ah4JEdJw9AAAAAABAXAI6FCaid+9r7wMAAAAAAACISkCHCYjoAAAAAAAAEI+ADhMR0QEAAAAAACAWAR0mJKJ36br3AQAAAAAAAEQloMPERHQAAAAAAACIQUCHAET0rthABwAAAAAACEpAhyBE9G586X0AAAAAAAAAUZ1sNhuHA4Gsl/PTYUv53Lm0Z7ZYnfQ+AwAAAAAAgKhsoEMwNtGbdtP7AAAAAAAAACIT0CEgEb1Zvn8OAAAAAAAQmIAOQYnoTbrtfQAAAAAAAACRCegQmIjeHBvoAAAAAAAAgQnoEJyI3oyb4SwBAAAAAAAISkCHCojoTbjqfQAAAAAAAADRCehQCRG9egI6AAAAAABAcAI6VEREr9bn2WL1pfchAAAAAAAARCegQ2VE9Cpd9j4AAAAAAACAGgjoUCERvSp3rm8HAAAAAACog4AOlRLRq3E1nBUAAAAAAADBCehQMRG9Ch96HwAAAAAAAEAtBHSonIge2qfZYvWl9yEAAAAAAADUQkCHBojoYV32PgAAAAAAAICaCOjQCBE9nJvZYnXd+xAAAAAAAABqIqBDQ0T0UC56HwAAAAAAAEBtBHRojIgewr98+xwAAAAAAKA+Ajo0SESf1F1K6UPH7w8AAAAAAFAtAR0aJaJP5mKYPQAAAAAAAJUR0KFhInpxn2aL1VVn7wwAAAAAANAMAR0aJ6IXs726/aKTdwUAAAAAAGiSgA4dENGLeOfqdgAAAAAAgLoJ6NAJET2rv2aL1XXD7wcAAAAAANCFk81m46ShI+vl/DSltI295859FNvvnr9r4D0AAAAAAAC6ZwMdOmMTfVSfffccAAAAAACgHQI6dEhEH8V2dm999xwAAAAAAKAdAjp0SkQ/yt1281w8BwAAAAAAaIuADh0T0Q9yN2ye31b47AAAAAAAADxDQIfOieh7+SyeAwAAAAAAtOtks9k4XiCtl/PTlNJVSumNaTzKN88BAAAAAAAaJ6ADP1gv5x9TSu9N5QeffPMcAAAAAACgfQI68Iv1cn6RUvq3ydz7a7ZYfQjwHAAAAAAAAGQmoAOPWi/nr4cr3f/odEJ3w9b5VYBnAQAAAAAAoIDfDBl4zGyxuk0pvR6uL+/NTUrpTDwHAAAAAADoiw104EXr5fxdSumyg2307db5h9lidRngWQAAAAAAAChMQAd2sl7OT1NKf6aU/tnoxP6zfb/ZYvU1wLMAAAAAAAAwAQEd2Mt6OT/bbmmnlN43MrmbIZzfBngWAAAAAAAAJiSgAwdZL+dvh430f1Q6wZvhuvbrAM8CAAAAAABAAAI6cJTvNtK330l/VcE0t1e1fxTOAQAAAAAA+JmADoxi+Eb6u2Er/TzYVP+bUrocwrlvnAMAAAAAAPAoAR0Y3bCVvo3pFxPG9M8ppavtn++bAwAAAAAAsAsBHchq2Ex/+91frqC+DebbUL69mv16tlh9cbIAAAAAAADsQ0AHilsv569TStst9f//Pxue4c0Lz3Iz/P86xPJtJP/ie+YAAAAAAACMQUAHAAAAAAAAoHtbv5kCAAAAAAAAAAjoAAAAAAAAAHBPQAcAAAAAAACge0lABwAAAAAAAIAHAjoAAAAAAAAA3UsCOgAAAAAAAAA8ENABAAAAAAAA6F4S0AEAAAAAAADggYAOAAAAAAAAQPeSgA4AAAAAAAAADwR0AAAAAAAAALqXBHQAAAAAAAAAeCCgAwAAAAAAANC9lFL6H/BvEUo3qcRAAAAAAElFTkSuQmCC;" parent="1" vertex="1">
                    <mxGeometry x="360.65999999999997" y="432.5" width="60" height="60" as="geometry"/>
                </mxCell>
                <mxCell id="10" style="edgeStyle=none;html=1;" parent="1" source="6" target="7" edge="1">
                    <mxGeometry relative="1" as="geometry"/>
                </mxCell>
                <mxCell id="12" value="参照" style="edgeLabel;html=1;align=center;verticalAlign=middle;resizable=0;points=[];" parent="10" vertex="1" connectable="0">
                    <mxGeometry x="-0.23" y="-3" relative="1" as="geometry">
                        <mxPoint as="offset"/>
                    </mxGeometry>
                </mxCell>
                <mxCell id="13" style="edgeStyle=none;html=1;entryX=0.5;entryY=0;entryDx=0;entryDy=0;" parent="1" source="6" target="2" edge="1">
                    <mxGeometry relative="1" as="geometry"/>
                </mxCell>
                <mxCell id="14" value="参照" style="edgeLabel;html=1;align=center;verticalAlign=middle;resizable=0;points=[];" parent="13" vertex="1" connectable="0">
                    <mxGeometry x="0.2849" y="1" relative="1" as="geometry">
                        <mxPoint as="offset"/>
                    </mxGeometry>
                </mxCell>
                <mxCell id="23" style="edgeStyle=none;html=1;entryX=0.5;entryY=0;entryDx=0;entryDy=0;" parent="1" source="6" target="3" edge="1">
                    <mxGeometry relative="1" as="geometry"/>
                </mxCell>
                <mxCell id="24" value="参照" style="edgeLabel;html=1;align=center;verticalAlign=middle;resizable=0;points=[];" parent="23" vertex="1" connectable="0">
                    <mxGeometry x="0.3863" relative="1" as="geometry">
                        <mxPoint as="offset"/>
                    </mxGeometry>
                </mxCell>
                <mxCell id="6" value="Grafana" style="shape=image;verticalLabelPosition=bottom;labelBackgroundColor=default;verticalAlign=top;aspect=fixed;imageAspect=0;image=https://res.cloudinary.com/canonical/image/fetch/f_auto,q_auto,fl_sanitize,c_fill,w_200,h_200/https://api.charmhub.io/api/v1/media/download/charm_nuH5FwARV8dmAkPiPcVCNtPKwsw0bkgL_icon_617129799faf7fbbe368793260a2f5590b52d1640dab5efc73e98cefcdec688e.png;" parent="1" vertex="1">
                    <mxGeometry x="350" y="54.13999999999999" width="80" height="80" as="geometry"/>
                </mxCell>
                <mxCell id="7" value="Prometheus" style="shape=image;verticalLabelPosition=bottom;labelBackgroundColor=default;verticalAlign=top;aspect=fixed;imageAspect=0;image=https://upload.wikimedia.org/wikipedia/commons/thumb/3/38/Prometheus_software_logo.svg/2066px-Prometheus_software_logo.svg.png;" parent="1" vertex="1">
                    <mxGeometry x="130" y="60" width="68.93" height="68.27" as="geometry"/>
                </mxCell>
                <mxCell id="21" style="edgeStyle=none;html=1;exitX=1;exitY=0.5;exitDx=0;exitDy=0;" parent="1" source="35" target="5" edge="1">
                    <mxGeometry relative="1" as="geometry">
                        <mxPoint x="241.33" y="462.5" as="sourcePoint"/>
                    </mxGeometry>
                </mxCell>
                <mxCell id="34" value="OTLP" style="edgeLabel;html=1;align=center;verticalAlign=middle;resizable=0;points=[];" parent="21" vertex="1" connectable="0">
                    <mxGeometry x="-0.5152" y="1" relative="1" as="geometry">
                        <mxPoint x="23" y="1" as="offset"/>
                    </mxGeometry>
                </mxCell>
                <mxCell id="25" value="Admin" style="shape=umlActor;verticalLabelPosition=bottom;verticalAlign=top;html=1;outlineConnect=0;" parent="1" vertex="1">
                    <mxGeometry x="598" y="-70.00000000000003" width="30" height="60" as="geometry"/>
                </mxCell>
                <mxCell id="28" style="edgeStyle=none;html=1;entryX=0.5;entryY=0;entryDx=0;entryDy=0;" parent="1" source="26" target="6" edge="1">
                    <mxGeometry relative="1" as="geometry"/>
                </mxCell>
                <mxCell id="29" value="閲覧・分析" style="edgeLabel;html=1;align=center;verticalAlign=middle;resizable=0;points=[];" parent="28" vertex="1" connectable="0">
                    <mxGeometry x="-0.3464" y="-3" relative="1" as="geometry">
                        <mxPoint as="offset"/>
                    </mxGeometry>
                </mxCell>
                <mxCell id="26" value="Desktop" style="strokeColor=#dddddd;shadow=1;strokeWidth=1;rounded=1;absoluteArcSize=1;arcSize=2;labelPosition=center;verticalLabelPosition=middle;align=center;verticalAlign=bottom;spacingLeft=0;fontColor=#999999;fontSize=12;whiteSpace=wrap;spacingBottom=2;" parent="1" vertex="1">
                    <mxGeometry x="510" y="-70" width="70" height="85" as="geometry"/>
                </mxCell>
                <mxCell id="27" value="" style="sketch=0;dashed=0;connectable=0;html=1;fillColor=#757575;strokeColor=none;shape=mxgraph.gcp2.desktop;part=1;" parent="26" vertex="1">
                    <mxGeometry x="0.5" width="50" height="45" relative="1" as="geometry">
                        <mxPoint x="-25" y="12.5" as="offset"/>
                    </mxGeometry>
                </mxCell>
                <mxCell id="30" value="各コンポーネントからスクレイピング（線は省略）" style="shape=callout;whiteSpace=wrap;html=1;perimeter=calloutPerimeter;position2=0.83;" parent="1" vertex="1">
                    <mxGeometry x="20" y="-30" width="140" height="80" as="geometry"/>
                </mxCell>
                <mxCell id="37" style="edgeStyle=none;html=1;entryX=0.5;entryY=0;entryDx=0;entryDy=0;fillColor=#dae8fc;strokeColor=#6c8ebf;" parent="1" source="35" target="36" edge="1">
                    <mxGeometry relative="1" as="geometry"/>
                </mxCell>
                <mxCell id="38" value="HTTP" style="edgeLabel;html=1;align=center;verticalAlign=middle;resizable=0;points=[];" parent="37" vertex="1" connectable="0">
                    <mxGeometry x="0.3553" y="-3" relative="1" as="geometry">
                        <mxPoint as="offset"/>
                    </mxGeometry>
                </mxCell>
                <mxCell id="53" style="edgeStyle=none;html=1;entryX=0.5;entryY=0;entryDx=0;entryDy=0;fillColor=#dae8fc;strokeColor=#6c8ebf;" parent="1" source="35" target="52" edge="1">
                    <mxGeometry relative="1" as="geometry"/>
                </mxCell>
                <mxCell id="54" value="HTTP" style="edgeLabel;html=1;align=center;verticalAlign=middle;resizable=0;points=[];" parent="53" vertex="1" connectable="0">
                    <mxGeometry x="-0.1691" y="1" relative="1" as="geometry">
                        <mxPoint x="-9" y="11" as="offset"/>
                    </mxGeometry>
                </mxCell>
                <mxCell id="35" value="API Proxy" style="shape=image;verticalLabelPosition=bottom;labelBackgroundColor=default;verticalAlign=top;aspect=fixed;imageAspect=0;image=https://www.envoyproxy.io/docs/envoy/latest/_static/envoy-logo.png;" parent="1" vertex="1">
                    <mxGeometry x="84.08000000000001" y="448.5" width="86.67" height="28" as="geometry"/>
                </mxCell>
                <mxCell id="46" style="edgeStyle=none;html=1;entryX=0;entryY=0.75;entryDx=0;entryDy=0;" parent="1" source="36" target="5" edge="1">
                    <mxGeometry relative="1" as="geometry"/>
                </mxCell>
                <mxCell id="47" value="OTLP" style="edgeLabel;html=1;align=center;verticalAlign=middle;resizable=0;points=[];" parent="46" vertex="1" connectable="0">
                    <mxGeometry x="0.3487" y="3" relative="1" as="geometry">
                        <mxPoint x="-9" y="15" as="offset"/>
                    </mxGeometry>
                </mxCell>
                <mxCell id="36" value="golang-demo-app" style="shape=image;verticalLabelPosition=bottom;labelBackgroundColor=default;verticalAlign=top;aspect=fixed;imageAspect=0;image=https://go.dev/blog/go-brand/Go-Logo/PNG/Go-Logo_Blue.png;" parent="1" vertex="1">
                    <mxGeometry x="170.75000000000003" y="567.5" width="67.83" height="60" as="geometry"/>
                </mxCell>
                <mxCell id="41" style="edgeStyle=none;html=1;entryX=0;entryY=0.5;entryDx=0;entryDy=0;fillColor=#dae8fc;strokeColor=#6c8ebf;" parent="1" source="39" target="35" edge="1">
                    <mxGeometry relative="1" as="geometry"/>
                </mxCell>
                <mxCell id="43" value="HTTP&amp;nbsp;" style="edgeLabel;html=1;align=center;verticalAlign=middle;resizable=0;points=[];" parent="41" vertex="1" connectable="0">
                    <mxGeometry x="-0.2587" y="1" relative="1" as="geometry">
                        <mxPoint as="offset"/>
                    </mxGeometry>
                </mxCell>
                <mxCell id="39" value="Desktop" style="strokeColor=#dddddd;shadow=1;strokeWidth=1;rounded=1;absoluteArcSize=1;arcSize=2;labelPosition=center;verticalLabelPosition=middle;align=center;verticalAlign=bottom;spacingLeft=0;fontColor=#999999;fontSize=12;whiteSpace=wrap;spacingBottom=2;" parent="1" vertex="1">
                    <mxGeometry x="-210" y="420" width="70" height="85" as="geometry"/>
                </mxCell>
                <mxCell id="40" value="" style="sketch=0;dashed=0;connectable=0;html=1;fillColor=#757575;strokeColor=none;shape=mxgraph.gcp2.desktop;part=1;" parent="39" vertex="1">
                    <mxGeometry x="0.5" width="50" height="45" relative="1" as="geometry">
                        <mxPoint x="-25" y="12.5" as="offset"/>
                    </mxGeometry>
                </mxCell>
                <mxCell id="42" value="End User" style="shape=umlActor;verticalLabelPosition=bottom;verticalAlign=top;html=1;outlineConnect=0;" parent="1" vertex="1">
                    <mxGeometry x="-250" y="432.5" width="30" height="60" as="geometry"/>
                </mxCell>
                <mxCell id="45" value="App" style="text;html=1;strokeColor=none;fillColor=none;align=center;verticalAlign=middle;whiteSpace=wrap;rounded=0;opacity=40;" parent="1" vertex="1">
                    <mxGeometry x="140" y="390" width="60" height="30" as="geometry"/>
                </mxCell>
                <mxCell id="48" value="dockerのlokiプラグインで各コンテナのログを収集（線は省略）" style="shape=callout;whiteSpace=wrap;html=1;perimeter=calloutPerimeter;position2=0;" parent="1" vertex="1">
                    <mxGeometry x="640" y="134.14" width="140" height="80" as="geometry"/>
                </mxCell>
                <mxCell id="49" value="java-demo-app" style="shape=image;verticalLabelPosition=bottom;labelBackgroundColor=default;verticalAlign=top;aspect=fixed;imageAspect=0;image=https://1000logos.net/wp-content/uploads/2020/09/Java-Logo.png;" parent="1" vertex="1">
                    <mxGeometry x="68" y="582.5" width="72" height="45" as="geometry"/>
                </mxCell>
                <mxCell id="50" style="edgeStyle=none;html=1;entryX=0.5;entryY=0;entryDx=0;entryDy=0;fillColor=#dae8fc;strokeColor=#6c8ebf;" parent="1" source="35" target="49" edge="1">
                    <mxGeometry relative="1" as="geometry">
                        <mxPoint x="147.71499999999992" y="486.5" as="sourcePoint"/>
                        <mxPoint x="214.66499999999996" y="577.5" as="targetPoint"/>
                    </mxGeometry>
                </mxCell>
                <mxCell id="51" value="HTTP" style="edgeLabel;html=1;align=center;verticalAlign=middle;resizable=0;points=[];" parent="50" vertex="1" connectable="0">
                    <mxGeometry x="0.3553" y="-3" relative="1" as="geometry">
                        <mxPoint x="7" y="-18" as="offset"/>
                    </mxGeometry>
                </mxCell>
                <mxCell id="52" value="frontend" style="shape=image;verticalLabelPosition=bottom;labelBackgroundColor=default;verticalAlign=top;aspect=fixed;imageAspect=0;image=https://cdn.worldvectorlogo.com/logos/next-js.svg;" parent="1" vertex="1">
                    <mxGeometry x="-20.34" y="577.5" width="50" height="50" as="geometry"/>
                </mxCell>
            </root>
        </mxGraphModel>
    </diagram>
</mxfile>